<mxfile host="app.diagrams.net" modified="2023-10-22T15:55:23.254Z" agent="Mozilla/5.0 (Windows NT 10.0; Win64; x64) AppleWebKit/537.36 (KHTML, like Gecko) Chrome/117.0.0.0 Safari/537.36" etag="hlQk3nPn0mya4VY23rFe" version="22.0.6" type="device" pages="6">
  <diagram id="BZvfHdFfjoOQC0wlp9q0" name="clk_div_0_01">
    <mxGraphModel dx="500" dy="292" grid="0" gridSize="10" guides="1" tooltips="1" connect="1" arrows="1" fold="1" page="1" pageScale="1" pageWidth="850" pageHeight="1100" math="0" shadow="0">
      <root>
        <mxCell id="0" />
        <mxCell id="1" parent="0" />
        <mxCell id="fTYD2zh81QNs1TfFXOht-3" style="edgeStyle=orthogonalEdgeStyle;rounded=0;orthogonalLoop=1;jettySize=auto;html=1;startArrow=none;startFill=0;entryX=0.5;entryY=1;entryDx=0;entryDy=0;" edge="1" parent="1" target="fTYD2zh81QNs1TfFXOht-1">
          <mxGeometry relative="1" as="geometry">
            <mxPoint x="429" y="310" as="sourcePoint" />
            <Array as="points">
              <mxPoint x="429" y="195" />
              <mxPoint x="389" y="195" />
            </Array>
          </mxGeometry>
        </mxCell>
        <mxCell id="fTYD2zh81QNs1TfFXOht-8" style="edgeStyle=orthogonalEdgeStyle;rounded=0;orthogonalLoop=1;jettySize=auto;html=1;exitX=1;exitY=0.5;exitDx=0;exitDy=0;" edge="1" parent="1" source="fTYD2zh81QNs1TfFXOht-1">
          <mxGeometry relative="1" as="geometry">
            <mxPoint x="489.8285784040179" y="154" as="targetPoint" />
          </mxGeometry>
        </mxCell>
        <mxCell id="fTYD2zh81QNs1TfFXOht-1" value="DFF" style="rounded=1;whiteSpace=wrap;html=1;" vertex="1" parent="1">
          <mxGeometry x="363" y="124" width="51" height="60" as="geometry" />
        </mxCell>
        <mxCell id="fTYD2zh81QNs1TfFXOht-4" style="edgeStyle=orthogonalEdgeStyle;rounded=0;orthogonalLoop=1;jettySize=auto;html=1;entryX=0.5;entryY=1;entryDx=0;entryDy=0;startArrow=oval;startFill=1;" edge="1" parent="1" target="fTYD2zh81QNs1TfFXOht-2">
          <mxGeometry relative="1" as="geometry">
            <mxPoint x="428" y="295" as="sourcePoint" />
            <Array as="points">
              <mxPoint x="429" y="294" />
              <mxPoint x="389" y="294" />
            </Array>
          </mxGeometry>
        </mxCell>
        <mxCell id="fTYD2zh81QNs1TfFXOht-9" style="edgeStyle=orthogonalEdgeStyle;rounded=0;orthogonalLoop=1;jettySize=auto;html=1;exitX=1;exitY=0.5;exitDx=0;exitDy=0;" edge="1" parent="1" source="fTYD2zh81QNs1TfFXOht-2">
          <mxGeometry relative="1" as="geometry">
            <mxPoint x="491.1999860491071" y="232.8571428571429" as="targetPoint" />
          </mxGeometry>
        </mxCell>
        <mxCell id="fTYD2zh81QNs1TfFXOht-2" value="DFF" style="rounded=1;whiteSpace=wrap;html=1;" vertex="1" parent="1">
          <mxGeometry x="363" y="203" width="51" height="60" as="geometry" />
        </mxCell>
        <mxCell id="fTYD2zh81QNs1TfFXOht-6" value="clk" style="text;html=1;align=center;verticalAlign=middle;resizable=0;points=[];autosize=1;strokeColor=none;fillColor=none;" vertex="1" parent="1">
          <mxGeometry x="411" y="306" width="33" height="26" as="geometry" />
        </mxCell>
        <mxCell id="fTYD2zh81QNs1TfFXOht-10" value="clk_div" style="text;html=1;align=center;verticalAlign=middle;resizable=0;points=[];autosize=1;strokeColor=none;fillColor=none;" vertex="1" parent="1">
          <mxGeometry x="484" y="141" width="55" height="26" as="geometry" />
        </mxCell>
        <mxCell id="fTYD2zh81QNs1TfFXOht-11" value="cnt" style="text;html=1;align=center;verticalAlign=middle;resizable=0;points=[];autosize=1;strokeColor=none;fillColor=none;" vertex="1" parent="1">
          <mxGeometry x="487" y="219" width="34" height="26" as="geometry" />
        </mxCell>
        <mxCell id="fTYD2zh81QNs1TfFXOht-24" style="edgeStyle=orthogonalEdgeStyle;rounded=0;orthogonalLoop=1;jettySize=auto;html=1;exitX=1;exitY=0.5;exitDx=0;exitDy=0;entryX=0;entryY=0.5;entryDx=0;entryDy=0;" edge="1" parent="1" source="fTYD2zh81QNs1TfFXOht-22" target="fTYD2zh81QNs1TfFXOht-1">
          <mxGeometry relative="1" as="geometry" />
        </mxCell>
        <mxCell id="fTYD2zh81QNs1TfFXOht-26" style="edgeStyle=orthogonalEdgeStyle;rounded=0;orthogonalLoop=1;jettySize=auto;html=1;exitX=0;exitY=0.5;exitDx=0;exitDy=0;entryX=0;entryY=0.5;entryDx=0;entryDy=0;startArrow=oval;startFill=1;" edge="1" parent="1" target="fTYD2zh81QNs1TfFXOht-22">
          <mxGeometry relative="1" as="geometry">
            <mxPoint x="449.7142682756696" y="154.19047619047615" as="sourcePoint" />
            <Array as="points">
              <mxPoint x="450" y="154" />
              <mxPoint x="450" y="93" />
              <mxPoint x="246" y="93" />
              <mxPoint x="246" y="154" />
            </Array>
          </mxGeometry>
        </mxCell>
        <mxCell id="fTYD2zh81QNs1TfFXOht-22" value="next_clk_div&lt;br&gt;Logic" style="rounded=1;whiteSpace=wrap;html=1;" vertex="1" parent="1">
          <mxGeometry x="266" y="124" width="75" height="60" as="geometry" />
        </mxCell>
        <mxCell id="fTYD2zh81QNs1TfFXOht-25" style="edgeStyle=orthogonalEdgeStyle;rounded=0;orthogonalLoop=1;jettySize=auto;html=1;exitX=1;exitY=0.5;exitDx=0;exitDy=0;entryX=0;entryY=0.5;entryDx=0;entryDy=0;" edge="1" parent="1" source="fTYD2zh81QNs1TfFXOht-23" target="fTYD2zh81QNs1TfFXOht-2">
          <mxGeometry relative="1" as="geometry" />
        </mxCell>
        <mxCell id="fTYD2zh81QNs1TfFXOht-27" style="edgeStyle=orthogonalEdgeStyle;rounded=0;orthogonalLoop=1;jettySize=auto;html=1;exitX=0;exitY=0.5;exitDx=0;exitDy=0;entryX=0;entryY=0.5;entryDx=0;entryDy=0;startArrow=oval;startFill=1;" edge="1" parent="1" target="fTYD2zh81QNs1TfFXOht-23">
          <mxGeometry relative="1" as="geometry">
            <mxPoint x="453.1428455171131" y="233.23809523809518" as="sourcePoint" />
            <Array as="points">
              <mxPoint x="453" y="283" />
              <mxPoint x="247" y="283" />
              <mxPoint x="247" y="233" />
            </Array>
          </mxGeometry>
        </mxCell>
        <mxCell id="fTYD2zh81QNs1TfFXOht-23" value="next_cnt&lt;br&gt;Logic" style="rounded=1;whiteSpace=wrap;html=1;" vertex="1" parent="1">
          <mxGeometry x="267" y="203" width="74" height="60" as="geometry" />
        </mxCell>
      </root>
    </mxGraphModel>
  </diagram>
  <diagram name="lab4_1 block diagram" id="90a13364-a465-7bf4-72fc-28e22215d7a0">
    <mxGraphModel dx="1703" dy="943" grid="0" gridSize="10" guides="1" tooltips="1" connect="1" arrows="1" fold="1" page="1" pageScale="1.5" pageWidth="1169" pageHeight="826" background="none" math="0" shadow="0">
      <root>
        <mxCell id="0" style=";html=1;" />
        <mxCell id="1" style=";html=1;" parent="0" />
        <mxCell id="D8H8qfYw100Ts4Npv7X5-45" style="edgeStyle=orthogonalEdgeStyle;rounded=0;orthogonalLoop=1;jettySize=auto;html=1;entryX=0.5;entryY=1;entryDx=0;entryDy=0;" edge="1" parent="1" target="D8H8qfYw100Ts4Npv7X5-1">
          <mxGeometry relative="1" as="geometry">
            <mxPoint x="840" y="810" as="sourcePoint" />
            <Array as="points">
              <mxPoint x="840" y="412" />
              <mxPoint x="877" y="412" />
            </Array>
          </mxGeometry>
        </mxCell>
        <mxCell id="D8H8qfYw100Ts4Npv7X5-81" style="edgeStyle=orthogonalEdgeStyle;rounded=0;orthogonalLoop=1;jettySize=auto;html=1;exitX=0.75;exitY=1;exitDx=0;exitDy=0;entryX=0.75;entryY=1;entryDx=0;entryDy=0;startArrow=none;startFill=0;" edge="1" parent="1" target="D8H8qfYw100Ts4Npv7X5-1">
          <mxGeometry relative="1" as="geometry">
            <mxPoint x="827.0769512469951" y="793.8461820162258" as="sourcePoint" />
            <Array as="points">
              <mxPoint x="827" y="420" />
              <mxPoint x="889" y="420" />
            </Array>
          </mxGeometry>
        </mxCell>
        <mxCell id="D8H8qfYw100Ts4Npv7X5-117" style="edgeStyle=orthogonalEdgeStyle;rounded=0;orthogonalLoop=1;jettySize=auto;html=1;exitX=1;exitY=0.5;exitDx=0;exitDy=0;entryX=0;entryY=0.25;entryDx=0;entryDy=0;" edge="1" parent="1" source="D8H8qfYw100Ts4Npv7X5-1" target="D8H8qfYw100Ts4Npv7X5-116">
          <mxGeometry relative="1" as="geometry">
            <Array as="points">
              <mxPoint x="1016" y="384" />
              <mxPoint x="1016" y="672" />
            </Array>
          </mxGeometry>
        </mxCell>
        <mxCell id="D8H8qfYw100Ts4Npv7X5-1" value="DFF" style="rounded=1;whiteSpace=wrap;html=1;" vertex="1" parent="1">
          <mxGeometry x="853" y="365" width="48" height="37" as="geometry" />
        </mxCell>
        <mxCell id="D8H8qfYw100Ts4Npv7X5-9" style="edgeStyle=orthogonalEdgeStyle;rounded=0;orthogonalLoop=1;jettySize=auto;html=1;exitX=1;exitY=0.5;exitDx=0;exitDy=0;entryX=-0.072;entryY=0.395;entryDx=0;entryDy=0;entryPerimeter=0;" edge="1" parent="1" source="D8H8qfYw100Ts4Npv7X5-2" target="D8H8qfYw100Ts4Npv7X5-10">
          <mxGeometry relative="1" as="geometry">
            <mxPoint x="990.0000406901042" y="447.66666666666663" as="targetPoint" />
          </mxGeometry>
        </mxCell>
        <mxCell id="D8H8qfYw100Ts4Npv7X5-47" style="edgeStyle=orthogonalEdgeStyle;rounded=0;orthogonalLoop=1;jettySize=auto;html=1;entryX=0.5;entryY=1;entryDx=0;entryDy=0;startArrow=oval;startFill=1;" edge="1" parent="1" target="D8H8qfYw100Ts4Npv7X5-2">
          <mxGeometry relative="1" as="geometry">
            <mxPoint x="841" y="476" as="sourcePoint" />
            <Array as="points">
              <mxPoint x="842" y="475" />
              <mxPoint x="878" y="475" />
            </Array>
          </mxGeometry>
        </mxCell>
        <mxCell id="D8H8qfYw100Ts4Npv7X5-83" style="edgeStyle=orthogonalEdgeStyle;rounded=0;orthogonalLoop=1;jettySize=auto;html=1;exitX=0.75;exitY=1;exitDx=0;exitDy=0;entryX=0.75;entryY=1;entryDx=0;entryDy=0;startArrow=oval;startFill=1;" edge="1" parent="1" target="D8H8qfYw100Ts4Npv7X5-2">
          <mxGeometry relative="1" as="geometry">
            <mxPoint x="826.3650987413196" y="487.6666841052828" as="sourcePoint" />
            <Array as="points">
              <mxPoint x="826" y="485" />
              <mxPoint x="890" y="485" />
            </Array>
          </mxGeometry>
        </mxCell>
        <mxCell id="D8H8qfYw100Ts4Npv7X5-2" value="DFF" style="rounded=1;whiteSpace=wrap;html=1;" vertex="1" parent="1">
          <mxGeometry x="854" y="429" width="48" height="37" as="geometry" />
        </mxCell>
        <mxCell id="D8H8qfYw100Ts4Npv7X5-11" style="edgeStyle=orthogonalEdgeStyle;rounded=0;orthogonalLoop=1;jettySize=auto;html=1;exitX=1;exitY=0.5;exitDx=0;exitDy=0;" edge="1" parent="1" source="D8H8qfYw100Ts4Npv7X5-3" target="D8H8qfYw100Ts4Npv7X5-12">
          <mxGeometry relative="1" as="geometry">
            <mxPoint x="1037" y="512.25" as="targetPoint" />
          </mxGeometry>
        </mxCell>
        <mxCell id="D8H8qfYw100Ts4Npv7X5-48" style="edgeStyle=orthogonalEdgeStyle;rounded=0;orthogonalLoop=1;jettySize=auto;html=1;entryX=0.5;entryY=1;entryDx=0;entryDy=0;startArrow=oval;startFill=1;" edge="1" parent="1" target="D8H8qfYw100Ts4Npv7X5-3">
          <mxGeometry relative="1" as="geometry">
            <mxPoint x="840" y="541" as="sourcePoint" />
            <Array as="points">
              <mxPoint x="840" y="540" />
              <mxPoint x="878" y="540" />
            </Array>
          </mxGeometry>
        </mxCell>
        <mxCell id="D8H8qfYw100Ts4Npv7X5-3" value="DFF" style="rounded=1;whiteSpace=wrap;html=1;" vertex="1" parent="1">
          <mxGeometry x="854" y="494.25" width="48" height="37" as="geometry" />
        </mxCell>
        <mxCell id="D8H8qfYw100Ts4Npv7X5-13" style="edgeStyle=orthogonalEdgeStyle;rounded=0;orthogonalLoop=1;jettySize=auto;html=1;exitX=1;exitY=0.5;exitDx=0;exitDy=0;entryX=0;entryY=0.5;entryDx=0;entryDy=0;" edge="1" parent="1" source="D8H8qfYw100Ts4Npv7X5-4" target="D8H8qfYw100Ts4Npv7X5-113">
          <mxGeometry relative="1" as="geometry">
            <mxPoint x="1031.6667073567708" y="582.6666666666667" as="targetPoint" />
          </mxGeometry>
        </mxCell>
        <mxCell id="D8H8qfYw100Ts4Npv7X5-50" style="edgeStyle=orthogonalEdgeStyle;rounded=0;orthogonalLoop=1;jettySize=auto;html=1;exitX=0.5;exitY=1;exitDx=0;exitDy=0;entryX=0.5;entryY=1;entryDx=0;entryDy=0;startArrow=oval;startFill=1;" edge="1" parent="1" target="D8H8qfYw100Ts4Npv7X5-4">
          <mxGeometry relative="1" as="geometry">
            <mxPoint x="840.4118149701287" y="612.8235401826746" as="sourcePoint" />
            <Array as="points">
              <mxPoint x="877" y="613" />
            </Array>
          </mxGeometry>
        </mxCell>
        <mxCell id="D8H8qfYw100Ts4Npv7X5-4" value="DFF" style="rounded=1;whiteSpace=wrap;html=1;" vertex="1" parent="1">
          <mxGeometry x="853" y="564" width="48" height="37" as="geometry" />
        </mxCell>
        <mxCell id="D8H8qfYw100Ts4Npv7X5-15" style="edgeStyle=orthogonalEdgeStyle;rounded=0;orthogonalLoop=1;jettySize=auto;html=1;exitX=1;exitY=0.5;exitDx=0;exitDy=0;entryX=0;entryY=0.5;entryDx=0;entryDy=0;" edge="1" parent="1" source="D8H8qfYw100Ts4Npv7X5-5" target="D8H8qfYw100Ts4Npv7X5-116">
          <mxGeometry relative="1" as="geometry">
            <mxPoint x="1035.4000244140625" y="651.4166666666667" as="targetPoint" />
          </mxGeometry>
        </mxCell>
        <mxCell id="D8H8qfYw100Ts4Npv7X5-51" style="edgeStyle=orthogonalEdgeStyle;rounded=0;orthogonalLoop=1;jettySize=auto;html=1;exitX=0.5;exitY=1;exitDx=0;exitDy=0;entryX=0.5;entryY=1;entryDx=0;entryDy=0;startArrow=oval;startFill=1;" edge="1" parent="1" target="D8H8qfYw100Ts4Npv7X5-5">
          <mxGeometry relative="1" as="geometry">
            <mxPoint x="840.8823960248162" y="682.0000143612133" as="sourcePoint" />
            <Array as="points">
              <mxPoint x="877" y="682" />
            </Array>
          </mxGeometry>
        </mxCell>
        <mxCell id="D8H8qfYw100Ts4Npv7X5-88" style="edgeStyle=orthogonalEdgeStyle;rounded=0;orthogonalLoop=1;jettySize=auto;html=1;entryX=0.75;entryY=1;entryDx=0;entryDy=0;startArrow=oval;startFill=1;" edge="1" parent="1" target="D8H8qfYw100Ts4Npv7X5-5">
          <mxGeometry relative="1" as="geometry">
            <mxPoint x="816" y="845" as="sourcePoint" />
            <Array as="points">
              <mxPoint x="817" y="844" />
              <mxPoint x="817" y="689" />
              <mxPoint x="889" y="689" />
            </Array>
          </mxGeometry>
        </mxCell>
        <mxCell id="D8H8qfYw100Ts4Npv7X5-5" value="DFF" style="rounded=1;whiteSpace=wrap;html=1;" vertex="1" parent="1">
          <mxGeometry x="853" y="632.75" width="48" height="37" as="geometry" />
        </mxCell>
        <mxCell id="D8H8qfYw100Ts4Npv7X5-17" style="edgeStyle=orthogonalEdgeStyle;rounded=0;orthogonalLoop=1;jettySize=auto;html=1;exitX=1;exitY=0.5;exitDx=0;exitDy=0;entryX=0;entryY=0.75;entryDx=0;entryDy=0;" edge="1" parent="1" source="D8H8qfYw100Ts4Npv7X5-6" target="D8H8qfYw100Ts4Npv7X5-116">
          <mxGeometry relative="1" as="geometry">
            <mxPoint x="1036.4667154947917" y="723.0833333333333" as="targetPoint" />
          </mxGeometry>
        </mxCell>
        <mxCell id="D8H8qfYw100Ts4Npv7X5-52" style="edgeStyle=orthogonalEdgeStyle;rounded=0;orthogonalLoop=1;jettySize=auto;html=1;exitX=0.5;exitY=1;exitDx=0;exitDy=0;entryX=0.5;entryY=1;entryDx=0;entryDy=0;startArrow=oval;startFill=1;" edge="1" parent="1" target="D8H8qfYw100Ts4Npv7X5-6">
          <mxGeometry relative="1" as="geometry">
            <mxPoint x="840.4118149701287" y="755.4117718864891" as="sourcePoint" />
            <Array as="points">
              <mxPoint x="877" y="755" />
            </Array>
          </mxGeometry>
        </mxCell>
        <mxCell id="D8H8qfYw100Ts4Npv7X5-6" value="DFF" style="rounded=1;whiteSpace=wrap;html=1;" vertex="1" parent="1">
          <mxGeometry x="853" y="704.75" width="48" height="37" as="geometry" />
        </mxCell>
        <mxCell id="D8H8qfYw100Ts4Npv7X5-8" value="state" style="text;html=1;align=center;verticalAlign=middle;resizable=0;points=[];autosize=1;strokeColor=none;fillColor=none;" vertex="1" parent="1">
          <mxGeometry x="986" y="362" width="44" height="26" as="geometry" />
        </mxCell>
        <mxCell id="D8H8qfYw100Ts4Npv7X5-10" value="dir" style="text;html=1;align=center;verticalAlign=middle;resizable=0;points=[];autosize=1;strokeColor=none;fillColor=none;" vertex="1" parent="1">
          <mxGeometry x="1036.5" y="437" width="31" height="26" as="geometry" />
        </mxCell>
        <mxCell id="D8H8qfYw100Ts4Npv7X5-12" value="DIGIT" style="text;html=1;align=center;verticalAlign=middle;resizable=0;points=[];autosize=1;strokeColor=none;fillColor=none;" vertex="1" parent="1">
          <mxGeometry x="1030" y="499.75" width="50" height="26" as="geometry" />
        </mxCell>
        <mxCell id="D8H8qfYw100Ts4Npv7X5-14" value="num" style="text;html=1;align=center;verticalAlign=middle;resizable=0;points=[];autosize=1;strokeColor=none;fillColor=none;" vertex="1" parent="1">
          <mxGeometry x="976" y="559" width="41" height="26" as="geometry" />
        </mxCell>
        <mxCell id="D8H8qfYw100Ts4Npv7X5-16" value="bcd" style="text;html=1;align=center;verticalAlign=middle;resizable=0;points=[];autosize=1;strokeColor=none;fillColor=none;" vertex="1" parent="1">
          <mxGeometry x="954" y="628" width="37" height="26" as="geometry" />
        </mxCell>
        <mxCell id="D8H8qfYw100Ts4Npv7X5-18" value="counter" style="text;html=1;align=center;verticalAlign=middle;resizable=0;points=[];autosize=1;strokeColor=none;fillColor=none;" vertex="1" parent="1">
          <mxGeometry x="928" y="700.25" width="58" height="26" as="geometry" />
        </mxCell>
        <mxCell id="D8H8qfYw100Ts4Npv7X5-102" style="edgeStyle=orthogonalEdgeStyle;rounded=0;orthogonalLoop=1;jettySize=auto;html=1;entryX=-0.013;entryY=0.631;entryDx=0;entryDy=0;startArrow=oval;startFill=1;entryPerimeter=0;" edge="1" parent="1" target="D8H8qfYw100Ts4Npv7X5-20">
          <mxGeometry relative="1" as="geometry">
            <mxPoint x="582" y="415" as="sourcePoint" />
          </mxGeometry>
        </mxCell>
        <mxCell id="D8H8qfYw100Ts4Npv7X5-103" style="edgeStyle=orthogonalEdgeStyle;rounded=0;orthogonalLoop=1;jettySize=auto;html=1;exitX=0;exitY=0.5;exitDx=0;exitDy=0;entryX=0;entryY=0.5;entryDx=0;entryDy=0;startArrow=oval;startFill=1;" edge="1" parent="1" target="D8H8qfYw100Ts4Npv7X5-20">
          <mxGeometry relative="1" as="geometry">
            <mxPoint x="591.7999801635742" y="400.5" as="sourcePoint" />
          </mxGeometry>
        </mxCell>
        <mxCell id="D8H8qfYw100Ts4Npv7X5-104" style="edgeStyle=orthogonalEdgeStyle;rounded=0;orthogonalLoop=1;jettySize=auto;html=1;entryX=-0.01;entryY=0.368;entryDx=0;entryDy=0;startArrow=oval;startFill=1;entryPerimeter=0;" edge="1" parent="1" target="D8H8qfYw100Ts4Npv7X5-20">
          <mxGeometry relative="1" as="geometry">
            <mxPoint x="561" y="386" as="sourcePoint" />
          </mxGeometry>
        </mxCell>
        <mxCell id="D8H8qfYw100Ts4Npv7X5-106" style="edgeStyle=orthogonalEdgeStyle;rounded=0;orthogonalLoop=1;jettySize=auto;html=1;exitX=1;exitY=0.5;exitDx=0;exitDy=0;entryX=0;entryY=0.5;entryDx=0;entryDy=0;" edge="1" parent="1" source="D8H8qfYw100Ts4Npv7X5-20" target="D8H8qfYw100Ts4Npv7X5-1">
          <mxGeometry relative="1" as="geometry" />
        </mxCell>
        <mxCell id="D8H8qfYw100Ts4Npv7X5-20" value="next_state&lt;br&gt;Logic" style="rounded=1;whiteSpace=wrap;html=1;" vertex="1" parent="1">
          <mxGeometry x="674" y="345" width="112" height="111" as="geometry" />
        </mxCell>
        <mxCell id="D8H8qfYw100Ts4Npv7X5-99" style="edgeStyle=orthogonalEdgeStyle;rounded=0;orthogonalLoop=1;jettySize=auto;html=1;exitX=0;exitY=0.75;exitDx=0;exitDy=0;entryX=0;entryY=0.75;entryDx=0;entryDy=0;startArrow=oval;startFill=1;" edge="1" parent="1" target="D8H8qfYw100Ts4Npv7X5-21">
          <mxGeometry relative="1" as="geometry">
            <mxPoint x="570.4762050083705" y="496.0952380952381" as="sourcePoint" />
          </mxGeometry>
        </mxCell>
        <mxCell id="D8H8qfYw100Ts4Npv7X5-100" style="edgeStyle=orthogonalEdgeStyle;rounded=0;orthogonalLoop=1;jettySize=auto;html=1;exitX=0;exitY=0.5;exitDx=0;exitDy=0;entryX=0;entryY=0.5;entryDx=0;entryDy=0;startArrow=oval;startFill=1;" edge="1" parent="1" target="D8H8qfYw100Ts4Npv7X5-21">
          <mxGeometry relative="1" as="geometry">
            <mxPoint x="579.0769794170672" y="485.6923076923076" as="sourcePoint" />
          </mxGeometry>
        </mxCell>
        <mxCell id="D8H8qfYw100Ts4Npv7X5-107" style="edgeStyle=orthogonalEdgeStyle;rounded=0;orthogonalLoop=1;jettySize=auto;html=1;exitX=1;exitY=0.5;exitDx=0;exitDy=0;entryX=0;entryY=0.5;entryDx=0;entryDy=0;" edge="1" parent="1" source="D8H8qfYw100Ts4Npv7X5-21" target="D8H8qfYw100Ts4Npv7X5-2">
          <mxGeometry relative="1" as="geometry">
            <Array as="points">
              <mxPoint x="817" y="486" />
              <mxPoint x="817" y="448" />
            </Array>
          </mxGeometry>
        </mxCell>
        <mxCell id="D8H8qfYw100Ts4Npv7X5-21" value="next_dir&lt;br&gt;Logic" style="rounded=1;whiteSpace=wrap;html=1;" vertex="1" parent="1">
          <mxGeometry x="674" y="464" width="112" height="43" as="geometry" />
        </mxCell>
        <mxCell id="D8H8qfYw100Ts4Npv7X5-98" style="edgeStyle=orthogonalEdgeStyle;rounded=0;orthogonalLoop=1;jettySize=auto;html=1;exitX=0;exitY=0.5;exitDx=0;exitDy=0;entryX=0;entryY=0.5;entryDx=0;entryDy=0;startArrow=oval;startFill=1;" edge="1" parent="1" target="D8H8qfYw100Ts4Npv7X5-22">
          <mxGeometry relative="1" as="geometry">
            <mxPoint x="600.2000579833984" y="533.5" as="sourcePoint" />
          </mxGeometry>
        </mxCell>
        <mxCell id="D8H8qfYw100Ts4Npv7X5-108" style="edgeStyle=orthogonalEdgeStyle;rounded=0;orthogonalLoop=1;jettySize=auto;html=1;exitX=1;exitY=0.5;exitDx=0;exitDy=0;entryX=0;entryY=0.5;entryDx=0;entryDy=0;" edge="1" parent="1" source="D8H8qfYw100Ts4Npv7X5-22" target="D8H8qfYw100Ts4Npv7X5-3">
          <mxGeometry relative="1" as="geometry" />
        </mxCell>
        <mxCell id="D8H8qfYw100Ts4Npv7X5-22" value="next_DIGIT&lt;br&gt;Logic" style="rounded=1;whiteSpace=wrap;html=1;" vertex="1" parent="1">
          <mxGeometry x="674" y="515" width="112" height="37" as="geometry" />
        </mxCell>
        <mxCell id="D8H8qfYw100Ts4Npv7X5-94" style="edgeStyle=orthogonalEdgeStyle;rounded=0;orthogonalLoop=1;jettySize=auto;html=1;exitX=0;exitY=0.75;exitDx=0;exitDy=0;entryX=0;entryY=0.75;entryDx=0;entryDy=0;startArrow=oval;startFill=1;" edge="1" parent="1" target="D8H8qfYw100Ts4Npv7X5-23">
          <mxGeometry relative="1" as="geometry">
            <mxPoint x="569.6923076923076" y="612.1538461538462" as="sourcePoint" />
          </mxGeometry>
        </mxCell>
        <mxCell id="D8H8qfYw100Ts4Npv7X5-95" style="edgeStyle=orthogonalEdgeStyle;rounded=0;orthogonalLoop=1;jettySize=auto;html=1;startArrow=oval;startFill=1;" edge="1" parent="1">
          <mxGeometry relative="1" as="geometry">
            <mxPoint x="673" y="602" as="targetPoint" />
            <mxPoint x="579" y="603" as="sourcePoint" />
            <Array as="points">
              <mxPoint x="579" y="601" />
              <mxPoint x="673" y="601" />
            </Array>
          </mxGeometry>
        </mxCell>
        <mxCell id="D8H8qfYw100Ts4Npv7X5-96" style="edgeStyle=orthogonalEdgeStyle;rounded=0;orthogonalLoop=1;jettySize=auto;html=1;entryX=0;entryY=0.361;entryDx=0;entryDy=0;entryPerimeter=0;startArrow=oval;startFill=1;" edge="1" parent="1" target="D8H8qfYw100Ts4Npv7X5-23">
          <mxGeometry relative="1" as="geometry">
            <mxPoint x="592" y="587" as="sourcePoint" />
          </mxGeometry>
        </mxCell>
        <mxCell id="D8H8qfYw100Ts4Npv7X5-97" style="edgeStyle=orthogonalEdgeStyle;rounded=0;orthogonalLoop=1;jettySize=auto;html=1;exitX=0;exitY=0.25;exitDx=0;exitDy=0;entryX=0;entryY=0.25;entryDx=0;entryDy=0;startArrow=oval;startFill=1;" edge="1" parent="1" target="D8H8qfYw100Ts4Npv7X5-23">
          <mxGeometry relative="1" as="geometry">
            <mxPoint x="961.0000610351562" y="513.6666463216147" as="sourcePoint" />
            <Array as="points">
              <mxPoint x="962" y="514" />
              <mxPoint x="962" y="285" />
              <mxPoint x="601" y="285" />
              <mxPoint x="601" y="580" />
            </Array>
          </mxGeometry>
        </mxCell>
        <mxCell id="D8H8qfYw100Ts4Npv7X5-109" style="edgeStyle=orthogonalEdgeStyle;rounded=0;orthogonalLoop=1;jettySize=auto;html=1;exitX=1;exitY=0.5;exitDx=0;exitDy=0;entryX=0;entryY=0.5;entryDx=0;entryDy=0;" edge="1" parent="1" source="D8H8qfYw100Ts4Npv7X5-23" target="D8H8qfYw100Ts4Npv7X5-4">
          <mxGeometry relative="1" as="geometry" />
        </mxCell>
        <mxCell id="D8H8qfYw100Ts4Npv7X5-112" style="edgeStyle=orthogonalEdgeStyle;rounded=0;orthogonalLoop=1;jettySize=auto;html=1;exitX=0;exitY=0.5;exitDx=0;exitDy=0;entryX=0;entryY=0.5;entryDx=0;entryDy=0;startArrow=oval;startFill=1;" edge="1" parent="1" target="D8H8qfYw100Ts4Npv7X5-23">
          <mxGeometry relative="1" as="geometry">
            <mxPoint x="976.6154386080227" y="582.7692401592549" as="sourcePoint" />
            <Array as="points">
              <mxPoint x="974" y="583" />
              <mxPoint x="974" y="270" />
              <mxPoint x="611" y="270" />
              <mxPoint x="611" y="596" />
            </Array>
          </mxGeometry>
        </mxCell>
        <mxCell id="D8H8qfYw100Ts4Npv7X5-23" value="next_num&lt;br&gt;Logic" style="rounded=1;whiteSpace=wrap;html=1;" vertex="1" parent="1">
          <mxGeometry x="674" y="564" width="112" height="64" as="geometry" />
        </mxCell>
        <mxCell id="D8H8qfYw100Ts4Npv7X5-91" style="edgeStyle=orthogonalEdgeStyle;rounded=0;orthogonalLoop=1;jettySize=auto;html=1;exitX=0;exitY=0.75;exitDx=0;exitDy=0;entryX=0;entryY=0.75;entryDx=0;entryDy=0;startArrow=oval;startFill=1;" edge="1" parent="1" target="D8H8qfYw100Ts4Npv7X5-24">
          <mxGeometry relative="1" as="geometry">
            <mxPoint x="570.3448612607758" y="677" as="sourcePoint" />
          </mxGeometry>
        </mxCell>
        <mxCell id="D8H8qfYw100Ts4Npv7X5-92" style="edgeStyle=orthogonalEdgeStyle;rounded=0;orthogonalLoop=1;jettySize=auto;html=1;exitX=0;exitY=0.5;exitDx=0;exitDy=0;entryX=0;entryY=0.5;entryDx=0;entryDy=0;startArrow=oval;startFill=1;" edge="1" parent="1" target="D8H8qfYw100Ts4Npv7X5-24">
          <mxGeometry relative="1" as="geometry">
            <mxPoint x="941.5384803185095" y="446.76922607421875" as="sourcePoint" />
            <Array as="points">
              <mxPoint x="942" y="314" />
              <mxPoint x="582" y="314" />
              <mxPoint x="582" y="664" />
            </Array>
          </mxGeometry>
        </mxCell>
        <mxCell id="D8H8qfYw100Ts4Npv7X5-93" style="edgeStyle=orthogonalEdgeStyle;rounded=0;orthogonalLoop=1;jettySize=auto;html=1;exitX=0;exitY=0.25;exitDx=0;exitDy=0;entryX=0;entryY=0.25;entryDx=0;entryDy=0;startArrow=oval;startFill=1;" edge="1" parent="1" target="D8H8qfYw100Ts4Npv7X5-24">
          <mxGeometry relative="1" as="geometry">
            <mxPoint x="952.6153752253606" y="651.0769230769231" as="sourcePoint" />
            <Array as="points">
              <mxPoint x="950" y="651" />
              <mxPoint x="950" y="299" />
              <mxPoint x="593" y="299" />
              <mxPoint x="593" y="651" />
            </Array>
          </mxGeometry>
        </mxCell>
        <mxCell id="D8H8qfYw100Ts4Npv7X5-110" style="edgeStyle=orthogonalEdgeStyle;rounded=0;orthogonalLoop=1;jettySize=auto;html=1;exitX=1;exitY=0.5;exitDx=0;exitDy=0;entryX=0;entryY=0.5;entryDx=0;entryDy=0;" edge="1" parent="1" source="D8H8qfYw100Ts4Npv7X5-24" target="D8H8qfYw100Ts4Npv7X5-5">
          <mxGeometry relative="1" as="geometry" />
        </mxCell>
        <mxCell id="D8H8qfYw100Ts4Npv7X5-24" value="next_bcd&lt;br&gt;Logic" style="rounded=1;whiteSpace=wrap;html=1;" vertex="1" parent="1">
          <mxGeometry x="674" y="638.25" width="112" height="52" as="geometry" />
        </mxCell>
        <mxCell id="D8H8qfYw100Ts4Npv7X5-89" style="edgeStyle=orthogonalEdgeStyle;rounded=0;orthogonalLoop=1;jettySize=auto;html=1;exitX=0;exitY=0.5;exitDx=0;exitDy=0;startArrow=oval;startFill=1;entryX=0;entryY=0.75;entryDx=0;entryDy=0;" edge="1" parent="1" target="D8H8qfYw100Ts4Npv7X5-25">
          <mxGeometry relative="1" as="geometry">
            <mxPoint x="668" y="714" as="targetPoint" />
            <mxPoint x="923" y="720" as="sourcePoint" />
            <Array as="points">
              <mxPoint x="923" y="336" />
              <mxPoint x="562" y="336" />
              <mxPoint x="562" y="735" />
            </Array>
          </mxGeometry>
        </mxCell>
        <mxCell id="D8H8qfYw100Ts4Npv7X5-90" style="edgeStyle=orthogonalEdgeStyle;rounded=0;orthogonalLoop=1;jettySize=auto;html=1;entryX=0;entryY=0.25;entryDx=0;entryDy=0;startArrow=oval;startFill=1;" edge="1" parent="1" target="D8H8qfYw100Ts4Npv7X5-25">
          <mxGeometry relative="1" as="geometry">
            <mxPoint x="933" y="382" as="sourcePoint" />
            <Array as="points">
              <mxPoint x="932" y="382" />
              <mxPoint x="932" y="322" />
              <mxPoint x="571" y="322" />
              <mxPoint x="571" y="712" />
            </Array>
          </mxGeometry>
        </mxCell>
        <mxCell id="D8H8qfYw100Ts4Npv7X5-111" style="edgeStyle=orthogonalEdgeStyle;rounded=0;orthogonalLoop=1;jettySize=auto;html=1;exitX=1;exitY=0.5;exitDx=0;exitDy=0;entryX=0;entryY=0.5;entryDx=0;entryDy=0;" edge="1" parent="1" source="D8H8qfYw100Ts4Npv7X5-25" target="D8H8qfYw100Ts4Npv7X5-6">
          <mxGeometry relative="1" as="geometry" />
        </mxCell>
        <mxCell id="D8H8qfYw100Ts4Npv7X5-25" value="next_counter&lt;br&gt;Logic" style="rounded=1;whiteSpace=wrap;html=1;" vertex="1" parent="1">
          <mxGeometry x="674" y="700.25" width="112" height="46" as="geometry" />
        </mxCell>
        <mxCell id="D8H8qfYw100Ts4Npv7X5-53" style="edgeStyle=orthogonalEdgeStyle;rounded=0;orthogonalLoop=1;jettySize=auto;html=1;exitX=0;exitY=0.5;exitDx=0;exitDy=0;entryX=0;entryY=0.5;entryDx=0;entryDy=0;" edge="1" parent="1" target="D8H8qfYw100Ts4Npv7X5-26">
          <mxGeometry relative="1" as="geometry">
            <mxPoint x="186.73914635699748" y="477.04347826086973" as="sourcePoint" />
          </mxGeometry>
        </mxCell>
        <mxCell id="D8H8qfYw100Ts4Npv7X5-59" style="edgeStyle=orthogonalEdgeStyle;rounded=0;orthogonalLoop=1;jettySize=auto;html=1;exitX=1;exitY=0.5;exitDx=0;exitDy=0;entryX=0;entryY=0.5;entryDx=0;entryDy=0;" edge="1" parent="1" source="D8H8qfYw100Ts4Npv7X5-26" target="D8H8qfYw100Ts4Npv7X5-29">
          <mxGeometry relative="1" as="geometry" />
        </mxCell>
        <mxCell id="D8H8qfYw100Ts4Npv7X5-62" style="edgeStyle=orthogonalEdgeStyle;rounded=0;orthogonalLoop=1;jettySize=auto;html=1;entryX=0.5;entryY=1;entryDx=0;entryDy=0;startArrow=oval;startFill=1;" edge="1" parent="1" target="D8H8qfYw100Ts4Npv7X5-26">
          <mxGeometry relative="1" as="geometry">
            <mxPoint x="441" y="795" as="sourcePoint" />
            <Array as="points">
              <mxPoint x="440" y="795" />
              <mxPoint x="441" y="795" />
              <mxPoint x="441" y="515" />
              <mxPoint x="278" y="515" />
            </Array>
          </mxGeometry>
        </mxCell>
        <mxCell id="D8H8qfYw100Ts4Npv7X5-26" value="debounce" style="rounded=1;whiteSpace=wrap;html=1;" vertex="1" parent="1">
          <mxGeometry x="240" y="458.25" width="76" height="37" as="geometry" />
        </mxCell>
        <mxCell id="D8H8qfYw100Ts4Npv7X5-55" style="edgeStyle=orthogonalEdgeStyle;rounded=0;orthogonalLoop=1;jettySize=auto;html=1;exitX=0;exitY=0.5;exitDx=0;exitDy=0;entryX=0;entryY=0.5;entryDx=0;entryDy=0;" edge="1" parent="1" target="D8H8qfYw100Ts4Npv7X5-27">
          <mxGeometry relative="1" as="geometry">
            <mxPoint x="184.65216860563874" y="552.6956521739132" as="sourcePoint" />
          </mxGeometry>
        </mxCell>
        <mxCell id="D8H8qfYw100Ts4Npv7X5-60" style="edgeStyle=orthogonalEdgeStyle;rounded=0;orthogonalLoop=1;jettySize=auto;html=1;exitX=1;exitY=0.5;exitDx=0;exitDy=0;entryX=0;entryY=0.5;entryDx=0;entryDy=0;" edge="1" parent="1" source="D8H8qfYw100Ts4Npv7X5-27" target="D8H8qfYw100Ts4Npv7X5-30">
          <mxGeometry relative="1" as="geometry" />
        </mxCell>
        <mxCell id="D8H8qfYw100Ts4Npv7X5-66" style="edgeStyle=orthogonalEdgeStyle;rounded=0;orthogonalLoop=1;jettySize=auto;html=1;exitX=0.5;exitY=1;exitDx=0;exitDy=0;entryX=0.5;entryY=1;entryDx=0;entryDy=0;startArrow=oval;startFill=1;" edge="1" parent="1" target="D8H8qfYw100Ts4Npv7X5-27">
          <mxGeometry relative="1" as="geometry">
            <mxPoint x="440" y="591" as="sourcePoint" />
            <Array as="points">
              <mxPoint x="438" y="591" />
              <mxPoint x="278" y="591" />
            </Array>
          </mxGeometry>
        </mxCell>
        <mxCell id="D8H8qfYw100Ts4Npv7X5-27" value="debounce" style="rounded=1;whiteSpace=wrap;html=1;" vertex="1" parent="1">
          <mxGeometry x="240" y="534.25" width="76" height="37" as="geometry" />
        </mxCell>
        <mxCell id="D8H8qfYw100Ts4Npv7X5-57" style="edgeStyle=orthogonalEdgeStyle;rounded=0;orthogonalLoop=1;jettySize=auto;html=1;exitX=0;exitY=0.5;exitDx=0;exitDy=0;entryX=0;entryY=0.5;entryDx=0;entryDy=0;" edge="1" parent="1" target="D8H8qfYw100Ts4Npv7X5-28">
          <mxGeometry relative="1" as="geometry">
            <mxPoint x="185.34783670176648" y="627.4782608695652" as="sourcePoint" />
          </mxGeometry>
        </mxCell>
        <mxCell id="D8H8qfYw100Ts4Npv7X5-61" style="edgeStyle=orthogonalEdgeStyle;rounded=0;orthogonalLoop=1;jettySize=auto;html=1;exitX=1;exitY=0.5;exitDx=0;exitDy=0;entryX=0;entryY=0.5;entryDx=0;entryDy=0;" edge="1" parent="1" source="D8H8qfYw100Ts4Npv7X5-28" target="D8H8qfYw100Ts4Npv7X5-31">
          <mxGeometry relative="1" as="geometry" />
        </mxCell>
        <mxCell id="D8H8qfYw100Ts4Npv7X5-28" value="debounce" style="rounded=1;whiteSpace=wrap;html=1;" vertex="1" parent="1">
          <mxGeometry x="240" y="609.25" width="76" height="37" as="geometry" />
        </mxCell>
        <mxCell id="D8H8qfYw100Ts4Npv7X5-63" style="edgeStyle=orthogonalEdgeStyle;rounded=0;orthogonalLoop=1;jettySize=auto;html=1;exitX=0.5;exitY=1;exitDx=0;exitDy=0;entryX=0.5;entryY=1;entryDx=0;entryDy=0;startArrow=oval;startFill=1;" edge="1" parent="1" target="D8H8qfYw100Ts4Npv7X5-29">
          <mxGeometry relative="1" as="geometry">
            <mxPoint x="377.28571428571433" y="515.0571899414062" as="sourcePoint" />
          </mxGeometry>
        </mxCell>
        <mxCell id="D8H8qfYw100Ts4Npv7X5-79" style="edgeStyle=orthogonalEdgeStyle;rounded=0;orthogonalLoop=1;jettySize=auto;html=1;exitX=1;exitY=0.5;exitDx=0;exitDy=0;entryX=0;entryY=0.75;entryDx=0;entryDy=0;" edge="1" parent="1" source="D8H8qfYw100Ts4Npv7X5-29" target="D8H8qfYw100Ts4Npv7X5-20">
          <mxGeometry relative="1" as="geometry">
            <mxPoint x="540.0869777513587" y="476.6956521739131" as="targetPoint" />
            <Array as="points">
              <mxPoint x="532" y="477" />
              <mxPoint x="532" y="428" />
            </Array>
          </mxGeometry>
        </mxCell>
        <mxCell id="D8H8qfYw100Ts4Npv7X5-29" value="one_pulse" style="rounded=1;whiteSpace=wrap;html=1;" vertex="1" parent="1">
          <mxGeometry x="339" y="458" width="76" height="37" as="geometry" />
        </mxCell>
        <mxCell id="D8H8qfYw100Ts4Npv7X5-67" style="edgeStyle=orthogonalEdgeStyle;rounded=0;orthogonalLoop=1;jettySize=auto;html=1;exitX=0.5;exitY=1;exitDx=0;exitDy=0;entryX=0.5;entryY=1;entryDx=0;entryDy=0;startArrow=oval;startFill=1;" edge="1" parent="1" target="D8H8qfYw100Ts4Npv7X5-30">
          <mxGeometry relative="1" as="geometry">
            <mxPoint x="377.28571428571433" y="591.4000069754463" as="sourcePoint" />
          </mxGeometry>
        </mxCell>
        <mxCell id="D8H8qfYw100Ts4Npv7X5-74" style="edgeStyle=orthogonalEdgeStyle;rounded=0;orthogonalLoop=1;jettySize=auto;html=1;exitX=1;exitY=0.5;exitDx=0;exitDy=0;entryX=0.005;entryY=0.88;entryDx=0;entryDy=0;entryPerimeter=0;" edge="1" parent="1" source="D8H8qfYw100Ts4Npv7X5-30" target="D8H8qfYw100Ts4Npv7X5-20">
          <mxGeometry relative="1" as="geometry">
            <mxPoint x="544" y="551" as="targetPoint" />
          </mxGeometry>
        </mxCell>
        <mxCell id="D8H8qfYw100Ts4Npv7X5-30" value="one_pulse" style="rounded=1;whiteSpace=wrap;html=1;" vertex="1" parent="1">
          <mxGeometry x="339" y="534" width="76" height="37" as="geometry" />
        </mxCell>
        <mxCell id="D8H8qfYw100Ts4Npv7X5-76" style="edgeStyle=orthogonalEdgeStyle;rounded=0;orthogonalLoop=1;jettySize=auto;html=1;exitX=1;exitY=0.5;exitDx=0;exitDy=0;entryX=0;entryY=0.25;entryDx=0;entryDy=0;" edge="1" parent="1" source="D8H8qfYw100Ts4Npv7X5-31" target="D8H8qfYw100Ts4Npv7X5-21">
          <mxGeometry relative="1" as="geometry">
            <mxPoint x="544" y="626" as="targetPoint" />
            <Array as="points">
              <mxPoint x="554" y="628" />
              <mxPoint x="554" y="475" />
            </Array>
          </mxGeometry>
        </mxCell>
        <mxCell id="D8H8qfYw100Ts4Npv7X5-31" value="one_pulse" style="rounded=1;whiteSpace=wrap;html=1;" vertex="1" parent="1">
          <mxGeometry x="339" y="609" width="76" height="37" as="geometry" />
        </mxCell>
        <mxCell id="D8H8qfYw100Ts4Npv7X5-37" style="edgeStyle=orthogonalEdgeStyle;rounded=0;orthogonalLoop=1;jettySize=auto;html=1;exitX=0;exitY=0.5;exitDx=0;exitDy=0;entryX=0;entryY=0.5;entryDx=0;entryDy=0;startArrow=oval;startFill=1;" edge="1" parent="1" target="D8H8qfYw100Ts4Npv7X5-32">
          <mxGeometry relative="1" as="geometry">
            <mxPoint x="202.00002373589405" y="817.6666497124565" as="sourcePoint" />
            <Array as="points">
              <mxPoint x="202" y="795" />
            </Array>
          </mxGeometry>
        </mxCell>
        <mxCell id="D8H8qfYw100Ts4Npv7X5-44" style="edgeStyle=orthogonalEdgeStyle;rounded=0;orthogonalLoop=1;jettySize=auto;html=1;exitX=1;exitY=0.5;exitDx=0;exitDy=0;endArrow=none;endFill=0;" edge="1" parent="1" source="D8H8qfYw100Ts4Npv7X5-32">
          <mxGeometry relative="1" as="geometry">
            <mxPoint x="826" y="795" as="targetPoint" />
          </mxGeometry>
        </mxCell>
        <mxCell id="D8H8qfYw100Ts4Npv7X5-32" value="clock_divider" style="rounded=1;whiteSpace=wrap;html=1;" vertex="1" parent="1">
          <mxGeometry x="234" y="776" width="125" height="37" as="geometry" />
        </mxCell>
        <mxCell id="D8H8qfYw100Ts4Npv7X5-36" style="edgeStyle=orthogonalEdgeStyle;rounded=0;orthogonalLoop=1;jettySize=auto;html=1;entryX=0;entryY=0.5;entryDx=0;entryDy=0;" edge="1" parent="1" target="D8H8qfYw100Ts4Npv7X5-33">
          <mxGeometry relative="1" as="geometry">
            <mxPoint x="174" y="817" as="sourcePoint" />
            <Array as="points">
              <mxPoint x="170" y="817" />
              <mxPoint x="202" y="817" />
              <mxPoint x="202" y="844" />
            </Array>
          </mxGeometry>
        </mxCell>
        <mxCell id="D8H8qfYw100Ts4Npv7X5-42" style="edgeStyle=orthogonalEdgeStyle;rounded=0;orthogonalLoop=1;jettySize=auto;html=1;exitX=1;exitY=0.5;exitDx=0;exitDy=0;entryX=0.75;entryY=1;entryDx=0;entryDy=0;" edge="1" parent="1" source="D8H8qfYw100Ts4Npv7X5-33" target="D8H8qfYw100Ts4Npv7X5-6">
          <mxGeometry relative="1" as="geometry">
            <mxPoint x="527" y="844" as="targetPoint" />
          </mxGeometry>
        </mxCell>
        <mxCell id="D8H8qfYw100Ts4Npv7X5-33" value="clock_divider_0_01" style="rounded=1;whiteSpace=wrap;html=1;" vertex="1" parent="1">
          <mxGeometry x="234" y="825" width="126" height="37" as="geometry" />
        </mxCell>
        <mxCell id="D8H8qfYw100Ts4Npv7X5-38" value="clk" style="text;html=1;align=center;verticalAlign=middle;resizable=0;points=[];autosize=1;strokeColor=none;fillColor=none;" vertex="1" parent="1">
          <mxGeometry x="137" y="803" width="33" height="26" as="geometry" />
        </mxCell>
        <mxCell id="D8H8qfYw100Ts4Npv7X5-41" value="clk_div_13" style="text;html=1;align=center;verticalAlign=middle;resizable=0;points=[];autosize=1;strokeColor=none;fillColor=none;" vertex="1" parent="1">
          <mxGeometry x="360" y="767" width="75" height="26" as="geometry" />
        </mxCell>
        <mxCell id="D8H8qfYw100Ts4Npv7X5-43" value="clk_div_0_01" style="text;html=1;align=center;verticalAlign=middle;resizable=0;points=[];autosize=1;strokeColor=none;fillColor=none;" vertex="1" parent="1">
          <mxGeometry x="360" y="815" width="88" height="26" as="geometry" />
        </mxCell>
        <mxCell id="D8H8qfYw100Ts4Npv7X5-46" value="rst" style="text;html=1;align=center;verticalAlign=middle;resizable=0;points=[];autosize=1;strokeColor=none;fillColor=none;" vertex="1" parent="1">
          <mxGeometry x="825" y="803" width="31" height="26" as="geometry" />
        </mxCell>
        <mxCell id="D8H8qfYw100Ts4Npv7X5-54" value="stop" style="text;html=1;align=center;verticalAlign=middle;resizable=0;points=[];autosize=1;strokeColor=none;fillColor=none;" vertex="1" parent="1">
          <mxGeometry x="145" y="463.5" width="41" height="26" as="geometry" />
        </mxCell>
        <mxCell id="D8H8qfYw100Ts4Npv7X5-56" value="start" style="text;html=1;align=center;verticalAlign=middle;resizable=0;points=[];autosize=1;strokeColor=none;fillColor=none;" vertex="1" parent="1">
          <mxGeometry x="145" y="539.75" width="41" height="26" as="geometry" />
        </mxCell>
        <mxCell id="D8H8qfYw100Ts4Npv7X5-58" value="direction" style="text;html=1;align=center;verticalAlign=middle;resizable=0;points=[];autosize=1;strokeColor=none;fillColor=none;" vertex="1" parent="1">
          <mxGeometry x="126" y="612.75" width="63" height="26" as="geometry" />
        </mxCell>
        <mxCell id="D8H8qfYw100Ts4Npv7X5-69" style="edgeStyle=orthogonalEdgeStyle;rounded=0;orthogonalLoop=1;jettySize=auto;html=1;exitX=0.5;exitY=1;exitDx=0;exitDy=0;entryX=0.5;entryY=1;entryDx=0;entryDy=0;startArrow=oval;startFill=1;" edge="1" parent="1">
          <mxGeometry relative="1" as="geometry">
            <mxPoint x="276" y="646.25" as="targetPoint" />
            <mxPoint x="438" y="666.25" as="sourcePoint" />
            <Array as="points">
              <mxPoint x="436" y="666.25" />
              <mxPoint x="276" y="666.25" />
            </Array>
          </mxGeometry>
        </mxCell>
        <mxCell id="D8H8qfYw100Ts4Npv7X5-71" style="edgeStyle=orthogonalEdgeStyle;rounded=0;orthogonalLoop=1;jettySize=auto;html=1;exitX=0.5;exitY=1;exitDx=0;exitDy=0;entryX=0.5;entryY=1;entryDx=0;entryDy=0;startArrow=oval;startFill=1;" edge="1" parent="1">
          <mxGeometry relative="1" as="geometry">
            <mxPoint x="376.86" y="645.05" as="targetPoint" />
            <mxPoint x="377.14571428571435" y="665.4500069754463" as="sourcePoint" />
          </mxGeometry>
        </mxCell>
        <mxCell id="D8H8qfYw100Ts4Npv7X5-73" value="stop_pulse" style="text;html=1;align=center;verticalAlign=middle;resizable=0;points=[];autosize=1;strokeColor=none;fillColor=none;" vertex="1" parent="1">
          <mxGeometry x="417" y="450" width="76" height="26" as="geometry" />
        </mxCell>
        <mxCell id="D8H8qfYw100Ts4Npv7X5-75" value="start_pulse" style="text;html=1;align=center;verticalAlign=middle;resizable=0;points=[];autosize=1;strokeColor=none;fillColor=none;" vertex="1" parent="1">
          <mxGeometry x="412" y="529.75" width="77" height="26" as="geometry" />
        </mxCell>
        <mxCell id="D8H8qfYw100Ts4Npv7X5-77" value="direction_pulse" style="text;html=1;align=center;verticalAlign=middle;resizable=0;points=[];autosize=1;strokeColor=none;fillColor=none;" vertex="1" parent="1">
          <mxGeometry x="409" y="605" width="99" height="26" as="geometry" />
        </mxCell>
        <mxCell id="D8H8qfYw100Ts4Npv7X5-85" style="edgeStyle=orthogonalEdgeStyle;rounded=0;orthogonalLoop=1;jettySize=auto;html=1;exitX=0.75;exitY=1;exitDx=0;exitDy=0;entryX=0.75;entryY=1;entryDx=0;entryDy=0;startArrow=oval;startFill=1;" edge="1" parent="1">
          <mxGeometry relative="1" as="geometry">
            <mxPoint x="891.63" y="531.25" as="targetPoint" />
            <mxPoint x="827.9950987413196" y="552.9166841052828" as="sourcePoint" />
            <Array as="points">
              <mxPoint x="827.63" y="550.25" />
              <mxPoint x="891.63" y="550.25" />
            </Array>
          </mxGeometry>
        </mxCell>
        <mxCell id="D8H8qfYw100Ts4Npv7X5-86" style="edgeStyle=orthogonalEdgeStyle;rounded=0;orthogonalLoop=1;jettySize=auto;html=1;exitX=0.75;exitY=1;exitDx=0;exitDy=0;entryX=0.75;entryY=1;entryDx=0;entryDy=0;startArrow=oval;startFill=1;" edge="1" parent="1">
          <mxGeometry relative="1" as="geometry">
            <mxPoint x="890.63" y="601" as="targetPoint" />
            <mxPoint x="826.9950987413196" y="622.6666841052828" as="sourcePoint" />
            <Array as="points">
              <mxPoint x="826.63" y="620" />
              <mxPoint x="890.63" y="620" />
            </Array>
          </mxGeometry>
        </mxCell>
        <mxCell id="D8H8qfYw100Ts4Npv7X5-105" style="edgeStyle=orthogonalEdgeStyle;rounded=0;orthogonalLoop=1;jettySize=auto;html=1;entryX=-0.01;entryY=0.368;entryDx=0;entryDy=0;startArrow=oval;startFill=1;entryPerimeter=0;" edge="1" parent="1">
          <mxGeometry relative="1" as="geometry">
            <mxPoint x="674" y="370.5" as="targetPoint" />
            <mxPoint x="571" y="371" as="sourcePoint" />
          </mxGeometry>
        </mxCell>
        <mxCell id="D8H8qfYw100Ts4Npv7X5-114" style="edgeStyle=orthogonalEdgeStyle;rounded=0;orthogonalLoop=1;jettySize=auto;html=1;exitX=1;exitY=0.5;exitDx=0;exitDy=0;" edge="1" parent="1" source="D8H8qfYw100Ts4Npv7X5-113">
          <mxGeometry relative="1" as="geometry">
            <mxPoint x="1187.6923335148736" y="582.6153846153845" as="targetPoint" />
          </mxGeometry>
        </mxCell>
        <mxCell id="D8H8qfYw100Ts4Npv7X5-113" value="DISPLAY&lt;br&gt;Logic" style="rounded=1;whiteSpace=wrap;html=1;" vertex="1" parent="1">
          <mxGeometry x="1073" y="564" width="73" height="37" as="geometry" />
        </mxCell>
        <mxCell id="D8H8qfYw100Ts4Npv7X5-115" value="DISPLAY" style="text;html=1;align=center;verticalAlign=middle;resizable=0;points=[];autosize=1;strokeColor=none;fillColor=none;" vertex="1" parent="1">
          <mxGeometry x="1183" y="570" width="68" height="26" as="geometry" />
        </mxCell>
        <mxCell id="D8H8qfYw100Ts4Npv7X5-118" style="edgeStyle=orthogonalEdgeStyle;rounded=0;orthogonalLoop=1;jettySize=auto;html=1;exitX=1;exitY=0.5;exitDx=0;exitDy=0;" edge="1" parent="1" source="D8H8qfYw100Ts4Npv7X5-116">
          <mxGeometry relative="1" as="geometry">
            <mxPoint x="1175.9999694824219" y="685.6923076923076" as="targetPoint" />
          </mxGeometry>
        </mxCell>
        <mxCell id="D8H8qfYw100Ts4Npv7X5-116" value="led&lt;br&gt;Logic" style="rounded=1;whiteSpace=wrap;html=1;" vertex="1" parent="1">
          <mxGeometry x="1073" y="657" width="49" height="56.75" as="geometry" />
        </mxCell>
        <mxCell id="D8H8qfYw100Ts4Npv7X5-119" value="led" style="text;html=1;align=center;verticalAlign=middle;resizable=0;points=[];autosize=1;strokeColor=none;fillColor=none;" vertex="1" parent="1">
          <mxGeometry x="1175" y="672.38" width="34" height="26" as="geometry" />
        </mxCell>
      </root>
    </mxGraphModel>
  </diagram>
  <diagram name="lab4_2_block_diagram" id="ux4QORfnNh6tXuF7VfKm">
    <mxGraphModel dx="1320" dy="721" grid="0" gridSize="10" guides="1" tooltips="1" connect="1" arrows="1" fold="1" page="1" pageScale="1.5" pageWidth="1169" pageHeight="826" background="none" math="0" shadow="0">
      <root>
        <mxCell id="zPtjtjYE5Ii2rIJAp5HN-0" style=";html=1;" />
        <mxCell id="zPtjtjYE5Ii2rIJAp5HN-1" style=";html=1;" parent="zPtjtjYE5Ii2rIJAp5HN-0" />
        <mxCell id="zPtjtjYE5Ii2rIJAp5HN-2" style="edgeStyle=orthogonalEdgeStyle;rounded=0;orthogonalLoop=1;jettySize=auto;html=1;entryX=0.387;entryY=1.033;entryDx=0;entryDy=0;entryPerimeter=0;" edge="1" parent="zPtjtjYE5Ii2rIJAp5HN-1" target="6STNdwLbXQUGIYIAoHTC-26">
          <mxGeometry relative="1" as="geometry">
            <mxPoint x="840" y="810" as="sourcePoint" />
            <Array as="points">
              <mxPoint x="840" y="241" />
              <mxPoint x="873" y="241" />
            </Array>
          </mxGeometry>
        </mxCell>
        <mxCell id="zPtjtjYE5Ii2rIJAp5HN-3" style="edgeStyle=orthogonalEdgeStyle;rounded=0;orthogonalLoop=1;jettySize=auto;html=1;exitX=0.75;exitY=1;exitDx=0;exitDy=0;entryX=0.75;entryY=1;entryDx=0;entryDy=0;startArrow=none;startFill=0;" edge="1" parent="zPtjtjYE5Ii2rIJAp5HN-1" target="zPtjtjYE5Ii2rIJAp5HN-5">
          <mxGeometry relative="1" as="geometry">
            <mxPoint x="827.0769512469951" y="793.8461820162258" as="sourcePoint" />
            <Array as="points">
              <mxPoint x="827" y="420" />
              <mxPoint x="889" y="420" />
            </Array>
          </mxGeometry>
        </mxCell>
        <mxCell id="zPtjtjYE5Ii2rIJAp5HN-4" style="edgeStyle=orthogonalEdgeStyle;rounded=0;orthogonalLoop=1;jettySize=auto;html=1;exitX=1;exitY=0.5;exitDx=0;exitDy=0;entryX=-0.043;entryY=0.31;entryDx=0;entryDy=0;entryPerimeter=0;" edge="1" parent="zPtjtjYE5Ii2rIJAp5HN-1" source="zPtjtjYE5Ii2rIJAp5HN-5" target="zPtjtjYE5Ii2rIJAp5HN-101">
          <mxGeometry relative="1" as="geometry">
            <mxPoint x="1069" y="659" as="targetPoint" />
            <Array as="points">
              <mxPoint x="1016" y="384" />
              <mxPoint x="1016" y="664" />
              <mxPoint x="1065" y="664" />
              <mxPoint x="1065" y="666" />
            </Array>
          </mxGeometry>
        </mxCell>
        <mxCell id="zPtjtjYE5Ii2rIJAp5HN-5" value="DFF" style="rounded=1;whiteSpace=wrap;html=1;" vertex="1" parent="zPtjtjYE5Ii2rIJAp5HN-1">
          <mxGeometry x="853" y="365" width="48" height="37" as="geometry" />
        </mxCell>
        <mxCell id="zPtjtjYE5Ii2rIJAp5HN-6" style="edgeStyle=orthogonalEdgeStyle;rounded=0;orthogonalLoop=1;jettySize=auto;html=1;exitX=1;exitY=0.5;exitDx=0;exitDy=0;entryX=-0.072;entryY=0.395;entryDx=0;entryDy=0;entryPerimeter=0;" edge="1" parent="zPtjtjYE5Ii2rIJAp5HN-1" source="zPtjtjYE5Ii2rIJAp5HN-9" target="zPtjtjYE5Ii2rIJAp5HN-24">
          <mxGeometry relative="1" as="geometry">
            <mxPoint x="990.0000406901042" y="447.66666666666663" as="targetPoint" />
          </mxGeometry>
        </mxCell>
        <mxCell id="zPtjtjYE5Ii2rIJAp5HN-7" style="edgeStyle=orthogonalEdgeStyle;rounded=0;orthogonalLoop=1;jettySize=auto;html=1;entryX=0.5;entryY=1;entryDx=0;entryDy=0;startArrow=oval;startFill=1;" edge="1" parent="zPtjtjYE5Ii2rIJAp5HN-1" target="zPtjtjYE5Ii2rIJAp5HN-9">
          <mxGeometry relative="1" as="geometry">
            <mxPoint x="841" y="476" as="sourcePoint" />
            <Array as="points">
              <mxPoint x="842" y="475" />
              <mxPoint x="878" y="475" />
            </Array>
          </mxGeometry>
        </mxCell>
        <mxCell id="zPtjtjYE5Ii2rIJAp5HN-8" style="edgeStyle=orthogonalEdgeStyle;rounded=0;orthogonalLoop=1;jettySize=auto;html=1;exitX=0.75;exitY=1;exitDx=0;exitDy=0;entryX=0.75;entryY=1;entryDx=0;entryDy=0;startArrow=oval;startFill=1;" edge="1" parent="zPtjtjYE5Ii2rIJAp5HN-1" target="zPtjtjYE5Ii2rIJAp5HN-9">
          <mxGeometry relative="1" as="geometry">
            <mxPoint x="826.3650987413196" y="487.6666841052828" as="sourcePoint" />
            <Array as="points">
              <mxPoint x="826" y="485" />
              <mxPoint x="890" y="485" />
            </Array>
          </mxGeometry>
        </mxCell>
        <mxCell id="zPtjtjYE5Ii2rIJAp5HN-9" value="DFF" style="rounded=1;whiteSpace=wrap;html=1;" vertex="1" parent="zPtjtjYE5Ii2rIJAp5HN-1">
          <mxGeometry x="854" y="429" width="48" height="37" as="geometry" />
        </mxCell>
        <mxCell id="zPtjtjYE5Ii2rIJAp5HN-10" style="edgeStyle=orthogonalEdgeStyle;rounded=0;orthogonalLoop=1;jettySize=auto;html=1;exitX=1;exitY=0.5;exitDx=0;exitDy=0;" edge="1" parent="zPtjtjYE5Ii2rIJAp5HN-1" source="zPtjtjYE5Ii2rIJAp5HN-12" target="zPtjtjYE5Ii2rIJAp5HN-25">
          <mxGeometry relative="1" as="geometry">
            <mxPoint x="1037" y="512.25" as="targetPoint" />
          </mxGeometry>
        </mxCell>
        <mxCell id="zPtjtjYE5Ii2rIJAp5HN-11" style="edgeStyle=orthogonalEdgeStyle;rounded=0;orthogonalLoop=1;jettySize=auto;html=1;entryX=0.5;entryY=1;entryDx=0;entryDy=0;startArrow=oval;startFill=1;" edge="1" parent="zPtjtjYE5Ii2rIJAp5HN-1" target="zPtjtjYE5Ii2rIJAp5HN-12">
          <mxGeometry relative="1" as="geometry">
            <mxPoint x="840" y="541" as="sourcePoint" />
            <Array as="points">
              <mxPoint x="840" y="540" />
              <mxPoint x="878" y="540" />
            </Array>
          </mxGeometry>
        </mxCell>
        <mxCell id="zPtjtjYE5Ii2rIJAp5HN-12" value="DFF" style="rounded=1;whiteSpace=wrap;html=1;" vertex="1" parent="zPtjtjYE5Ii2rIJAp5HN-1">
          <mxGeometry x="854" y="494.25" width="48" height="37" as="geometry" />
        </mxCell>
        <mxCell id="zPtjtjYE5Ii2rIJAp5HN-13" style="edgeStyle=orthogonalEdgeStyle;rounded=0;orthogonalLoop=1;jettySize=auto;html=1;exitX=1;exitY=0.5;exitDx=0;exitDy=0;entryX=0;entryY=0.5;entryDx=0;entryDy=0;" edge="1" parent="zPtjtjYE5Ii2rIJAp5HN-1" source="zPtjtjYE5Ii2rIJAp5HN-15" target="zPtjtjYE5Ii2rIJAp5HN-98">
          <mxGeometry relative="1" as="geometry">
            <mxPoint x="1031.6667073567708" y="582.6666666666667" as="targetPoint" />
          </mxGeometry>
        </mxCell>
        <mxCell id="zPtjtjYE5Ii2rIJAp5HN-14" style="edgeStyle=orthogonalEdgeStyle;rounded=0;orthogonalLoop=1;jettySize=auto;html=1;exitX=0.5;exitY=1;exitDx=0;exitDy=0;entryX=0.5;entryY=1;entryDx=0;entryDy=0;startArrow=oval;startFill=1;" edge="1" parent="zPtjtjYE5Ii2rIJAp5HN-1" target="zPtjtjYE5Ii2rIJAp5HN-15">
          <mxGeometry relative="1" as="geometry">
            <mxPoint x="840.4118149701287" y="612.8235401826746" as="sourcePoint" />
            <Array as="points">
              <mxPoint x="877" y="613" />
            </Array>
          </mxGeometry>
        </mxCell>
        <mxCell id="zPtjtjYE5Ii2rIJAp5HN-15" value="DFF" style="rounded=1;whiteSpace=wrap;html=1;" vertex="1" parent="zPtjtjYE5Ii2rIJAp5HN-1">
          <mxGeometry x="853" y="564" width="48" height="37" as="geometry" />
        </mxCell>
        <mxCell id="zPtjtjYE5Ii2rIJAp5HN-16" style="edgeStyle=orthogonalEdgeStyle;rounded=0;orthogonalLoop=1;jettySize=auto;html=1;exitX=1;exitY=0.5;exitDx=0;exitDy=0;entryX=0;entryY=0.5;entryDx=0;entryDy=0;" edge="1" parent="zPtjtjYE5Ii2rIJAp5HN-1" source="zPtjtjYE5Ii2rIJAp5HN-19" target="zPtjtjYE5Ii2rIJAp5HN-101">
          <mxGeometry relative="1" as="geometry">
            <mxPoint x="1035.4000244140625" y="651.4166666666667" as="targetPoint" />
          </mxGeometry>
        </mxCell>
        <mxCell id="zPtjtjYE5Ii2rIJAp5HN-17" style="edgeStyle=orthogonalEdgeStyle;rounded=0;orthogonalLoop=1;jettySize=auto;html=1;exitX=0.5;exitY=1;exitDx=0;exitDy=0;entryX=0.5;entryY=1;entryDx=0;entryDy=0;startArrow=oval;startFill=1;" edge="1" parent="zPtjtjYE5Ii2rIJAp5HN-1" target="zPtjtjYE5Ii2rIJAp5HN-19">
          <mxGeometry relative="1" as="geometry">
            <mxPoint x="840.8823960248162" y="682.0000143612133" as="sourcePoint" />
            <Array as="points">
              <mxPoint x="877" y="682" />
            </Array>
          </mxGeometry>
        </mxCell>
        <mxCell id="zPtjtjYE5Ii2rIJAp5HN-18" style="edgeStyle=orthogonalEdgeStyle;rounded=0;orthogonalLoop=1;jettySize=auto;html=1;entryX=0.75;entryY=1;entryDx=0;entryDy=0;startArrow=oval;startFill=1;" edge="1" parent="zPtjtjYE5Ii2rIJAp5HN-1" target="6STNdwLbXQUGIYIAoHTC-26">
          <mxGeometry relative="1" as="geometry">
            <mxPoint x="813" y="946" as="sourcePoint" />
            <Array as="points">
              <mxPoint x="813" y="250" />
              <mxPoint x="890" y="250" />
            </Array>
          </mxGeometry>
        </mxCell>
        <mxCell id="zPtjtjYE5Ii2rIJAp5HN-19" value="DFF" style="rounded=1;whiteSpace=wrap;html=1;" vertex="1" parent="zPtjtjYE5Ii2rIJAp5HN-1">
          <mxGeometry x="853" y="632.75" width="48" height="37" as="geometry" />
        </mxCell>
        <mxCell id="zPtjtjYE5Ii2rIJAp5HN-20" style="edgeStyle=orthogonalEdgeStyle;rounded=0;orthogonalLoop=1;jettySize=auto;html=1;exitX=1;exitY=0.5;exitDx=0;exitDy=0;entryX=0;entryY=0.75;entryDx=0;entryDy=0;" edge="1" parent="zPtjtjYE5Ii2rIJAp5HN-1" source="zPtjtjYE5Ii2rIJAp5HN-22" target="zPtjtjYE5Ii2rIJAp5HN-101">
          <mxGeometry relative="1" as="geometry">
            <mxPoint x="1036.4667154947917" y="723.0833333333333" as="targetPoint" />
          </mxGeometry>
        </mxCell>
        <mxCell id="zPtjtjYE5Ii2rIJAp5HN-21" style="edgeStyle=orthogonalEdgeStyle;rounded=0;orthogonalLoop=1;jettySize=auto;html=1;exitX=0.5;exitY=1;exitDx=0;exitDy=0;entryX=0.5;entryY=1;entryDx=0;entryDy=0;startArrow=oval;startFill=1;" edge="1" parent="zPtjtjYE5Ii2rIJAp5HN-1" target="zPtjtjYE5Ii2rIJAp5HN-22">
          <mxGeometry relative="1" as="geometry">
            <mxPoint x="840.4118149701287" y="755.4117718864891" as="sourcePoint" />
            <Array as="points">
              <mxPoint x="877" y="755" />
            </Array>
          </mxGeometry>
        </mxCell>
        <mxCell id="zPtjtjYE5Ii2rIJAp5HN-22" value="DFF" style="rounded=1;whiteSpace=wrap;html=1;" vertex="1" parent="zPtjtjYE5Ii2rIJAp5HN-1">
          <mxGeometry x="853" y="704.75" width="48" height="37" as="geometry" />
        </mxCell>
        <mxCell id="zPtjtjYE5Ii2rIJAp5HN-23" value="state" style="text;html=1;align=center;verticalAlign=middle;resizable=0;points=[];autosize=1;strokeColor=none;fillColor=none;" vertex="1" parent="zPtjtjYE5Ii2rIJAp5HN-1">
          <mxGeometry x="986" y="362" width="44" height="26" as="geometry" />
        </mxCell>
        <mxCell id="zPtjtjYE5Ii2rIJAp5HN-24" value="dir" style="text;html=1;align=center;verticalAlign=middle;resizable=0;points=[];autosize=1;strokeColor=none;fillColor=none;" vertex="1" parent="zPtjtjYE5Ii2rIJAp5HN-1">
          <mxGeometry x="1036.5" y="437" width="31" height="26" as="geometry" />
        </mxCell>
        <mxCell id="zPtjtjYE5Ii2rIJAp5HN-25" value="DIGIT" style="text;html=1;align=center;verticalAlign=middle;resizable=0;points=[];autosize=1;strokeColor=none;fillColor=none;" vertex="1" parent="zPtjtjYE5Ii2rIJAp5HN-1">
          <mxGeometry x="1030" y="499.75" width="50" height="26" as="geometry" />
        </mxCell>
        <mxCell id="zPtjtjYE5Ii2rIJAp5HN-26" value="num" style="text;html=1;align=center;verticalAlign=middle;resizable=0;points=[];autosize=1;strokeColor=none;fillColor=none;" vertex="1" parent="zPtjtjYE5Ii2rIJAp5HN-1">
          <mxGeometry x="976" y="559" width="41" height="26" as="geometry" />
        </mxCell>
        <mxCell id="zPtjtjYE5Ii2rIJAp5HN-27" value="bcd" style="text;html=1;align=center;verticalAlign=middle;resizable=0;points=[];autosize=1;strokeColor=none;fillColor=none;" vertex="1" parent="zPtjtjYE5Ii2rIJAp5HN-1">
          <mxGeometry x="954" y="628" width="37" height="26" as="geometry" />
        </mxCell>
        <mxCell id="zPtjtjYE5Ii2rIJAp5HN-28" value="counter" style="text;html=1;align=center;verticalAlign=middle;resizable=0;points=[];autosize=1;strokeColor=none;fillColor=none;" vertex="1" parent="zPtjtjYE5Ii2rIJAp5HN-1">
          <mxGeometry x="928" y="700.25" width="58" height="26" as="geometry" />
        </mxCell>
        <mxCell id="zPtjtjYE5Ii2rIJAp5HN-29" style="edgeStyle=orthogonalEdgeStyle;rounded=0;orthogonalLoop=1;jettySize=auto;html=1;entryX=-0.013;entryY=0.631;entryDx=0;entryDy=0;startArrow=oval;startFill=1;entryPerimeter=0;" edge="1" parent="zPtjtjYE5Ii2rIJAp5HN-1" target="zPtjtjYE5Ii2rIJAp5HN-33">
          <mxGeometry relative="1" as="geometry">
            <mxPoint x="582" y="415" as="sourcePoint" />
          </mxGeometry>
        </mxCell>
        <mxCell id="zPtjtjYE5Ii2rIJAp5HN-30" style="edgeStyle=orthogonalEdgeStyle;rounded=0;orthogonalLoop=1;jettySize=auto;html=1;exitX=0;exitY=0.5;exitDx=0;exitDy=0;entryX=0;entryY=0.5;entryDx=0;entryDy=0;startArrow=oval;startFill=1;" edge="1" parent="zPtjtjYE5Ii2rIJAp5HN-1" target="zPtjtjYE5Ii2rIJAp5HN-33">
          <mxGeometry relative="1" as="geometry">
            <mxPoint x="591.7999801635742" y="400.5" as="sourcePoint" />
          </mxGeometry>
        </mxCell>
        <mxCell id="zPtjtjYE5Ii2rIJAp5HN-31" style="edgeStyle=orthogonalEdgeStyle;rounded=0;orthogonalLoop=1;jettySize=auto;html=1;entryX=-0.01;entryY=0.368;entryDx=0;entryDy=0;startArrow=oval;startFill=1;entryPerimeter=0;" edge="1" parent="zPtjtjYE5Ii2rIJAp5HN-1" target="zPtjtjYE5Ii2rIJAp5HN-33">
          <mxGeometry relative="1" as="geometry">
            <mxPoint x="561" y="386" as="sourcePoint" />
          </mxGeometry>
        </mxCell>
        <mxCell id="zPtjtjYE5Ii2rIJAp5HN-32" style="edgeStyle=orthogonalEdgeStyle;rounded=0;orthogonalLoop=1;jettySize=auto;html=1;exitX=1;exitY=0.5;exitDx=0;exitDy=0;entryX=0;entryY=0.5;entryDx=0;entryDy=0;" edge="1" parent="zPtjtjYE5Ii2rIJAp5HN-1" source="zPtjtjYE5Ii2rIJAp5HN-33" target="zPtjtjYE5Ii2rIJAp5HN-5">
          <mxGeometry relative="1" as="geometry" />
        </mxCell>
        <mxCell id="6STNdwLbXQUGIYIAoHTC-41" style="edgeStyle=orthogonalEdgeStyle;rounded=0;orthogonalLoop=1;jettySize=auto;html=1;exitX=0.007;exitY=0.128;exitDx=0;exitDy=0;exitPerimeter=0;entryX=0.007;entryY=0.128;entryDx=0;entryDy=0;entryPerimeter=0;startArrow=oval;startFill=1;" edge="1" parent="zPtjtjYE5Ii2rIJAp5HN-1" target="zPtjtjYE5Ii2rIJAp5HN-33">
          <mxGeometry relative="1" as="geometry">
            <mxPoint x="984.8571457635787" y="309.71427990141365" as="sourcePoint" />
            <Array as="points">
              <mxPoint x="985" y="32" />
              <mxPoint x="621" y="32" />
              <mxPoint x="621" y="359" />
            </Array>
          </mxGeometry>
        </mxCell>
        <mxCell id="6STNdwLbXQUGIYIAoHTC-44" style="edgeStyle=orthogonalEdgeStyle;rounded=0;orthogonalLoop=1;jettySize=auto;html=1;exitX=-0.002;exitY=0.436;exitDx=0;exitDy=0;exitPerimeter=0;entryX=0;entryY=0.5;entryDx=0;entryDy=0;startArrow=oval;startFill=1;" edge="1" parent="zPtjtjYE5Ii2rIJAp5HN-1" target="zPtjtjYE5Ii2rIJAp5HN-47">
          <mxGeometry relative="1" as="geometry">
            <mxPoint x="999.3999786376953" y="218.20001220703125" as="sourcePoint" />
            <Array as="points">
              <mxPoint x="999" y="104" />
              <mxPoint x="628" y="104" />
              <mxPoint x="628" y="596" />
            </Array>
          </mxGeometry>
        </mxCell>
        <mxCell id="6STNdwLbXQUGIYIAoHTC-47" style="edgeStyle=orthogonalEdgeStyle;rounded=0;orthogonalLoop=1;jettySize=auto;html=1;exitX=0;exitY=0.25;exitDx=0;exitDy=0;entryX=0;entryY=0.25;entryDx=0;entryDy=0;startArrow=oval;startFill=1;" edge="1" parent="zPtjtjYE5Ii2rIJAp5HN-1" target="zPtjtjYE5Ii2rIJAp5HN-33">
          <mxGeometry relative="1" as="geometry">
            <mxPoint x="627.4545204856179" y="381.181845925071" as="sourcePoint" />
          </mxGeometry>
        </mxCell>
        <mxCell id="zPtjtjYE5Ii2rIJAp5HN-33" value="next_state&lt;br&gt;Logic" style="rounded=1;whiteSpace=wrap;html=1;" vertex="1" parent="zPtjtjYE5Ii2rIJAp5HN-1">
          <mxGeometry x="674" y="345" width="112" height="111" as="geometry" />
        </mxCell>
        <mxCell id="zPtjtjYE5Ii2rIJAp5HN-34" style="edgeStyle=orthogonalEdgeStyle;rounded=0;orthogonalLoop=1;jettySize=auto;html=1;exitX=0;exitY=0.75;exitDx=0;exitDy=0;entryX=0;entryY=0.75;entryDx=0;entryDy=0;startArrow=oval;startFill=1;" edge="1" parent="zPtjtjYE5Ii2rIJAp5HN-1" target="zPtjtjYE5Ii2rIJAp5HN-37">
          <mxGeometry relative="1" as="geometry">
            <mxPoint x="570.4762050083705" y="496.0952380952381" as="sourcePoint" />
          </mxGeometry>
        </mxCell>
        <mxCell id="zPtjtjYE5Ii2rIJAp5HN-35" style="edgeStyle=orthogonalEdgeStyle;rounded=0;orthogonalLoop=1;jettySize=auto;html=1;exitX=0;exitY=0.5;exitDx=0;exitDy=0;entryX=0;entryY=0.5;entryDx=0;entryDy=0;startArrow=oval;startFill=1;" edge="1" parent="zPtjtjYE5Ii2rIJAp5HN-1" target="zPtjtjYE5Ii2rIJAp5HN-37">
          <mxGeometry relative="1" as="geometry">
            <mxPoint x="579.0769794170672" y="485.6923076923076" as="sourcePoint" />
          </mxGeometry>
        </mxCell>
        <mxCell id="zPtjtjYE5Ii2rIJAp5HN-36" style="edgeStyle=orthogonalEdgeStyle;rounded=0;orthogonalLoop=1;jettySize=auto;html=1;exitX=1;exitY=0.5;exitDx=0;exitDy=0;entryX=0;entryY=0.5;entryDx=0;entryDy=0;" edge="1" parent="zPtjtjYE5Ii2rIJAp5HN-1" source="zPtjtjYE5Ii2rIJAp5HN-37" target="zPtjtjYE5Ii2rIJAp5HN-9">
          <mxGeometry relative="1" as="geometry">
            <Array as="points">
              <mxPoint x="817" y="486" />
              <mxPoint x="817" y="448" />
            </Array>
          </mxGeometry>
        </mxCell>
        <mxCell id="zPtjtjYE5Ii2rIJAp5HN-37" value="next_dir&lt;br&gt;Logic" style="rounded=1;whiteSpace=wrap;html=1;" vertex="1" parent="zPtjtjYE5Ii2rIJAp5HN-1">
          <mxGeometry x="674" y="464" width="112" height="43" as="geometry" />
        </mxCell>
        <mxCell id="zPtjtjYE5Ii2rIJAp5HN-38" style="edgeStyle=orthogonalEdgeStyle;rounded=0;orthogonalLoop=1;jettySize=auto;html=1;exitX=0;exitY=0.5;exitDx=0;exitDy=0;entryX=0;entryY=0.5;entryDx=0;entryDy=0;startArrow=oval;startFill=1;" edge="1" parent="zPtjtjYE5Ii2rIJAp5HN-1" target="zPtjtjYE5Ii2rIJAp5HN-40">
          <mxGeometry relative="1" as="geometry">
            <mxPoint x="600.2000579833984" y="533.5" as="sourcePoint" />
          </mxGeometry>
        </mxCell>
        <mxCell id="zPtjtjYE5Ii2rIJAp5HN-39" style="edgeStyle=orthogonalEdgeStyle;rounded=0;orthogonalLoop=1;jettySize=auto;html=1;exitX=1;exitY=0.5;exitDx=0;exitDy=0;entryX=0;entryY=0.5;entryDx=0;entryDy=0;" edge="1" parent="zPtjtjYE5Ii2rIJAp5HN-1" source="zPtjtjYE5Ii2rIJAp5HN-40" target="zPtjtjYE5Ii2rIJAp5HN-12">
          <mxGeometry relative="1" as="geometry" />
        </mxCell>
        <mxCell id="zPtjtjYE5Ii2rIJAp5HN-40" value="next_DIGIT&lt;br&gt;Logic" style="rounded=1;whiteSpace=wrap;html=1;" vertex="1" parent="zPtjtjYE5Ii2rIJAp5HN-1">
          <mxGeometry x="674" y="515" width="112" height="37" as="geometry" />
        </mxCell>
        <mxCell id="zPtjtjYE5Ii2rIJAp5HN-41" style="edgeStyle=orthogonalEdgeStyle;rounded=0;orthogonalLoop=1;jettySize=auto;html=1;exitX=0;exitY=0.75;exitDx=0;exitDy=0;entryX=0;entryY=0.75;entryDx=0;entryDy=0;startArrow=oval;startFill=1;" edge="1" parent="zPtjtjYE5Ii2rIJAp5HN-1" target="zPtjtjYE5Ii2rIJAp5HN-47">
          <mxGeometry relative="1" as="geometry">
            <mxPoint x="569.6923076923076" y="612.1538461538462" as="sourcePoint" />
          </mxGeometry>
        </mxCell>
        <mxCell id="zPtjtjYE5Ii2rIJAp5HN-42" style="edgeStyle=orthogonalEdgeStyle;rounded=0;orthogonalLoop=1;jettySize=auto;html=1;startArrow=oval;startFill=1;" edge="1" parent="zPtjtjYE5Ii2rIJAp5HN-1">
          <mxGeometry relative="1" as="geometry">
            <mxPoint x="673" y="602" as="targetPoint" />
            <mxPoint x="579" y="603" as="sourcePoint" />
            <Array as="points">
              <mxPoint x="579" y="601" />
              <mxPoint x="673" y="601" />
            </Array>
          </mxGeometry>
        </mxCell>
        <mxCell id="zPtjtjYE5Ii2rIJAp5HN-43" style="edgeStyle=orthogonalEdgeStyle;rounded=0;orthogonalLoop=1;jettySize=auto;html=1;entryX=0;entryY=0.361;entryDx=0;entryDy=0;entryPerimeter=0;startArrow=oval;startFill=1;" edge="1" parent="zPtjtjYE5Ii2rIJAp5HN-1" target="zPtjtjYE5Ii2rIJAp5HN-47">
          <mxGeometry relative="1" as="geometry">
            <mxPoint x="592" y="587" as="sourcePoint" />
          </mxGeometry>
        </mxCell>
        <mxCell id="zPtjtjYE5Ii2rIJAp5HN-44" style="edgeStyle=orthogonalEdgeStyle;rounded=0;orthogonalLoop=1;jettySize=auto;html=1;exitX=0;exitY=0.25;exitDx=0;exitDy=0;entryX=0;entryY=0.25;entryDx=0;entryDy=0;startArrow=oval;startFill=1;" edge="1" parent="zPtjtjYE5Ii2rIJAp5HN-1" target="zPtjtjYE5Ii2rIJAp5HN-47">
          <mxGeometry relative="1" as="geometry">
            <mxPoint x="961.0000610351562" y="513.6666463216147" as="sourcePoint" />
            <Array as="points">
              <mxPoint x="962" y="514" />
              <mxPoint x="962" y="59" />
              <mxPoint x="601" y="59" />
              <mxPoint x="601" y="580" />
            </Array>
          </mxGeometry>
        </mxCell>
        <mxCell id="zPtjtjYE5Ii2rIJAp5HN-45" style="edgeStyle=orthogonalEdgeStyle;rounded=0;orthogonalLoop=1;jettySize=auto;html=1;exitX=1;exitY=0.5;exitDx=0;exitDy=0;entryX=0;entryY=0.5;entryDx=0;entryDy=0;" edge="1" parent="zPtjtjYE5Ii2rIJAp5HN-1" source="zPtjtjYE5Ii2rIJAp5HN-47" target="zPtjtjYE5Ii2rIJAp5HN-15">
          <mxGeometry relative="1" as="geometry" />
        </mxCell>
        <mxCell id="zPtjtjYE5Ii2rIJAp5HN-46" style="edgeStyle=orthogonalEdgeStyle;rounded=0;orthogonalLoop=1;jettySize=auto;html=1;exitX=0;exitY=0.5;exitDx=0;exitDy=0;entryX=0;entryY=0.5;entryDx=0;entryDy=0;startArrow=oval;startFill=1;" edge="1" parent="zPtjtjYE5Ii2rIJAp5HN-1" target="zPtjtjYE5Ii2rIJAp5HN-47">
          <mxGeometry relative="1" as="geometry">
            <mxPoint x="976.6154386080227" y="582.7692401592549" as="sourcePoint" />
            <Array as="points">
              <mxPoint x="974" y="583" />
              <mxPoint x="974" y="44" />
              <mxPoint x="611" y="44" />
              <mxPoint x="611" y="596" />
            </Array>
          </mxGeometry>
        </mxCell>
        <mxCell id="zPtjtjYE5Ii2rIJAp5HN-47" value="next_num&lt;br&gt;Logic" style="rounded=1;whiteSpace=wrap;html=1;" vertex="1" parent="zPtjtjYE5Ii2rIJAp5HN-1">
          <mxGeometry x="674" y="564" width="112" height="64" as="geometry" />
        </mxCell>
        <mxCell id="zPtjtjYE5Ii2rIJAp5HN-48" style="edgeStyle=orthogonalEdgeStyle;rounded=0;orthogonalLoop=1;jettySize=auto;html=1;exitX=0;exitY=0.75;exitDx=0;exitDy=0;entryX=0;entryY=0.75;entryDx=0;entryDy=0;startArrow=oval;startFill=1;" edge="1" parent="zPtjtjYE5Ii2rIJAp5HN-1" target="zPtjtjYE5Ii2rIJAp5HN-52">
          <mxGeometry relative="1" as="geometry">
            <mxPoint x="570.3448612607758" y="677" as="sourcePoint" />
          </mxGeometry>
        </mxCell>
        <mxCell id="zPtjtjYE5Ii2rIJAp5HN-49" style="edgeStyle=orthogonalEdgeStyle;rounded=0;orthogonalLoop=1;jettySize=auto;html=1;exitX=0;exitY=0.5;exitDx=0;exitDy=0;entryX=0;entryY=0.5;entryDx=0;entryDy=0;startArrow=oval;startFill=1;" edge="1" parent="zPtjtjYE5Ii2rIJAp5HN-1" target="zPtjtjYE5Ii2rIJAp5HN-52">
          <mxGeometry relative="1" as="geometry">
            <mxPoint x="941.5384803185095" y="446.76922607421875" as="sourcePoint" />
            <Array as="points">
              <mxPoint x="942" y="73" />
              <mxPoint x="582" y="73" />
              <mxPoint x="582" y="664" />
            </Array>
          </mxGeometry>
        </mxCell>
        <mxCell id="zPtjtjYE5Ii2rIJAp5HN-50" style="edgeStyle=orthogonalEdgeStyle;rounded=0;orthogonalLoop=1;jettySize=auto;html=1;exitX=0;exitY=0.25;exitDx=0;exitDy=0;entryX=0;entryY=0.25;entryDx=0;entryDy=0;startArrow=oval;startFill=1;" edge="1" parent="zPtjtjYE5Ii2rIJAp5HN-1" target="zPtjtjYE5Ii2rIJAp5HN-52">
          <mxGeometry relative="1" as="geometry">
            <mxPoint x="952.6153752253606" y="651.0769230769231" as="sourcePoint" />
            <Array as="points">
              <mxPoint x="950" y="651" />
              <mxPoint x="950" y="67" />
              <mxPoint x="593" y="67" />
              <mxPoint x="593" y="651" />
            </Array>
          </mxGeometry>
        </mxCell>
        <mxCell id="zPtjtjYE5Ii2rIJAp5HN-51" style="edgeStyle=orthogonalEdgeStyle;rounded=0;orthogonalLoop=1;jettySize=auto;html=1;exitX=1;exitY=0.5;exitDx=0;exitDy=0;entryX=0;entryY=0.5;entryDx=0;entryDy=0;" edge="1" parent="zPtjtjYE5Ii2rIJAp5HN-1" source="zPtjtjYE5Ii2rIJAp5HN-52" target="zPtjtjYE5Ii2rIJAp5HN-19">
          <mxGeometry relative="1" as="geometry" />
        </mxCell>
        <mxCell id="zPtjtjYE5Ii2rIJAp5HN-52" value="next_bcd&lt;br&gt;Logic" style="rounded=1;whiteSpace=wrap;html=1;" vertex="1" parent="zPtjtjYE5Ii2rIJAp5HN-1">
          <mxGeometry x="674" y="638.25" width="112" height="52" as="geometry" />
        </mxCell>
        <mxCell id="zPtjtjYE5Ii2rIJAp5HN-53" style="edgeStyle=orthogonalEdgeStyle;rounded=0;orthogonalLoop=1;jettySize=auto;html=1;exitX=0;exitY=0.5;exitDx=0;exitDy=0;startArrow=oval;startFill=1;entryX=0;entryY=0.75;entryDx=0;entryDy=0;" edge="1" parent="zPtjtjYE5Ii2rIJAp5HN-1" target="zPtjtjYE5Ii2rIJAp5HN-56">
          <mxGeometry relative="1" as="geometry">
            <mxPoint x="668" y="714" as="targetPoint" />
            <mxPoint x="923" y="720" as="sourcePoint" />
            <Array as="points">
              <mxPoint x="923" y="92" />
              <mxPoint x="562" y="92" />
              <mxPoint x="562" y="735" />
            </Array>
          </mxGeometry>
        </mxCell>
        <mxCell id="zPtjtjYE5Ii2rIJAp5HN-54" style="edgeStyle=orthogonalEdgeStyle;rounded=0;orthogonalLoop=1;jettySize=auto;html=1;entryX=0;entryY=0.25;entryDx=0;entryDy=0;startArrow=oval;startFill=1;" edge="1" parent="zPtjtjYE5Ii2rIJAp5HN-1" target="zPtjtjYE5Ii2rIJAp5HN-56">
          <mxGeometry relative="1" as="geometry">
            <mxPoint x="933" y="382" as="sourcePoint" />
            <Array as="points">
              <mxPoint x="932" y="382" />
              <mxPoint x="932" y="81" />
              <mxPoint x="571" y="81" />
              <mxPoint x="571" y="712" />
            </Array>
          </mxGeometry>
        </mxCell>
        <mxCell id="zPtjtjYE5Ii2rIJAp5HN-55" style="edgeStyle=orthogonalEdgeStyle;rounded=0;orthogonalLoop=1;jettySize=auto;html=1;exitX=1;exitY=0.5;exitDx=0;exitDy=0;entryX=0;entryY=0.5;entryDx=0;entryDy=0;" edge="1" parent="zPtjtjYE5Ii2rIJAp5HN-1" source="zPtjtjYE5Ii2rIJAp5HN-56" target="zPtjtjYE5Ii2rIJAp5HN-22">
          <mxGeometry relative="1" as="geometry" />
        </mxCell>
        <mxCell id="zPtjtjYE5Ii2rIJAp5HN-56" value="next_counter&lt;br&gt;Logic" style="rounded=1;whiteSpace=wrap;html=1;" vertex="1" parent="zPtjtjYE5Ii2rIJAp5HN-1">
          <mxGeometry x="674" y="700.25" width="112" height="46" as="geometry" />
        </mxCell>
        <mxCell id="zPtjtjYE5Ii2rIJAp5HN-57" style="edgeStyle=orthogonalEdgeStyle;rounded=0;orthogonalLoop=1;jettySize=auto;html=1;exitX=0;exitY=0.5;exitDx=0;exitDy=0;entryX=0;entryY=0.5;entryDx=0;entryDy=0;" edge="1" parent="zPtjtjYE5Ii2rIJAp5HN-1" target="zPtjtjYE5Ii2rIJAp5HN-60">
          <mxGeometry relative="1" as="geometry">
            <mxPoint x="186.73914635699748" y="477.04347826086973" as="sourcePoint" />
          </mxGeometry>
        </mxCell>
        <mxCell id="zPtjtjYE5Ii2rIJAp5HN-58" style="edgeStyle=orthogonalEdgeStyle;rounded=0;orthogonalLoop=1;jettySize=auto;html=1;exitX=1;exitY=0.5;exitDx=0;exitDy=0;entryX=0;entryY=0.5;entryDx=0;entryDy=0;" edge="1" parent="zPtjtjYE5Ii2rIJAp5HN-1" source="zPtjtjYE5Ii2rIJAp5HN-60" target="zPtjtjYE5Ii2rIJAp5HN-70">
          <mxGeometry relative="1" as="geometry" />
        </mxCell>
        <mxCell id="zPtjtjYE5Ii2rIJAp5HN-59" style="edgeStyle=orthogonalEdgeStyle;rounded=0;orthogonalLoop=1;jettySize=auto;html=1;entryX=0.5;entryY=1;entryDx=0;entryDy=0;startArrow=oval;startFill=1;" edge="1" parent="zPtjtjYE5Ii2rIJAp5HN-1" target="zPtjtjYE5Ii2rIJAp5HN-60">
          <mxGeometry relative="1" as="geometry">
            <mxPoint x="441" y="897" as="sourcePoint" />
            <Array as="points">
              <mxPoint x="440" y="795" />
              <mxPoint x="441" y="795" />
              <mxPoint x="441" y="515" />
              <mxPoint x="278" y="515" />
            </Array>
          </mxGeometry>
        </mxCell>
        <mxCell id="zPtjtjYE5Ii2rIJAp5HN-60" value="debounce" style="rounded=1;whiteSpace=wrap;html=1;" vertex="1" parent="zPtjtjYE5Ii2rIJAp5HN-1">
          <mxGeometry x="240" y="458.25" width="76" height="37" as="geometry" />
        </mxCell>
        <mxCell id="zPtjtjYE5Ii2rIJAp5HN-61" style="edgeStyle=orthogonalEdgeStyle;rounded=0;orthogonalLoop=1;jettySize=auto;html=1;exitX=0;exitY=0.5;exitDx=0;exitDy=0;entryX=0;entryY=0.5;entryDx=0;entryDy=0;" edge="1" parent="zPtjtjYE5Ii2rIJAp5HN-1" target="zPtjtjYE5Ii2rIJAp5HN-64">
          <mxGeometry relative="1" as="geometry">
            <mxPoint x="184.65216860563874" y="552.6956521739132" as="sourcePoint" />
          </mxGeometry>
        </mxCell>
        <mxCell id="zPtjtjYE5Ii2rIJAp5HN-62" style="edgeStyle=orthogonalEdgeStyle;rounded=0;orthogonalLoop=1;jettySize=auto;html=1;exitX=1;exitY=0.5;exitDx=0;exitDy=0;entryX=0;entryY=0.5;entryDx=0;entryDy=0;" edge="1" parent="zPtjtjYE5Ii2rIJAp5HN-1" source="zPtjtjYE5Ii2rIJAp5HN-64" target="zPtjtjYE5Ii2rIJAp5HN-73">
          <mxGeometry relative="1" as="geometry" />
        </mxCell>
        <mxCell id="zPtjtjYE5Ii2rIJAp5HN-63" style="edgeStyle=orthogonalEdgeStyle;rounded=0;orthogonalLoop=1;jettySize=auto;html=1;exitX=0.5;exitY=1;exitDx=0;exitDy=0;entryX=0.5;entryY=1;entryDx=0;entryDy=0;startArrow=oval;startFill=1;" edge="1" parent="zPtjtjYE5Ii2rIJAp5HN-1" target="zPtjtjYE5Ii2rIJAp5HN-64">
          <mxGeometry relative="1" as="geometry">
            <mxPoint x="440" y="591" as="sourcePoint" />
            <Array as="points">
              <mxPoint x="438" y="591" />
              <mxPoint x="278" y="591" />
            </Array>
          </mxGeometry>
        </mxCell>
        <mxCell id="zPtjtjYE5Ii2rIJAp5HN-64" value="debounce" style="rounded=1;whiteSpace=wrap;html=1;" vertex="1" parent="zPtjtjYE5Ii2rIJAp5HN-1">
          <mxGeometry x="240" y="534.25" width="76" height="37" as="geometry" />
        </mxCell>
        <mxCell id="zPtjtjYE5Ii2rIJAp5HN-65" style="edgeStyle=orthogonalEdgeStyle;rounded=0;orthogonalLoop=1;jettySize=auto;html=1;exitX=0;exitY=0.5;exitDx=0;exitDy=0;entryX=0;entryY=0.5;entryDx=0;entryDy=0;" edge="1" parent="zPtjtjYE5Ii2rIJAp5HN-1" target="zPtjtjYE5Ii2rIJAp5HN-67">
          <mxGeometry relative="1" as="geometry">
            <mxPoint x="185.34783670176648" y="627.4782608695652" as="sourcePoint" />
          </mxGeometry>
        </mxCell>
        <mxCell id="zPtjtjYE5Ii2rIJAp5HN-66" style="edgeStyle=orthogonalEdgeStyle;rounded=0;orthogonalLoop=1;jettySize=auto;html=1;exitX=1;exitY=0.5;exitDx=0;exitDy=0;entryX=0;entryY=0.5;entryDx=0;entryDy=0;" edge="1" parent="zPtjtjYE5Ii2rIJAp5HN-1" source="zPtjtjYE5Ii2rIJAp5HN-67" target="zPtjtjYE5Ii2rIJAp5HN-75">
          <mxGeometry relative="1" as="geometry" />
        </mxCell>
        <mxCell id="zPtjtjYE5Ii2rIJAp5HN-67" value="debounce" style="rounded=1;whiteSpace=wrap;html=1;" vertex="1" parent="zPtjtjYE5Ii2rIJAp5HN-1">
          <mxGeometry x="240" y="609.25" width="76" height="37" as="geometry" />
        </mxCell>
        <mxCell id="zPtjtjYE5Ii2rIJAp5HN-68" style="edgeStyle=orthogonalEdgeStyle;rounded=0;orthogonalLoop=1;jettySize=auto;html=1;exitX=0.5;exitY=1;exitDx=0;exitDy=0;entryX=0.5;entryY=1;entryDx=0;entryDy=0;startArrow=oval;startFill=1;" edge="1" parent="zPtjtjYE5Ii2rIJAp5HN-1" target="zPtjtjYE5Ii2rIJAp5HN-70">
          <mxGeometry relative="1" as="geometry">
            <mxPoint x="377.28571428571433" y="515.0571899414062" as="sourcePoint" />
          </mxGeometry>
        </mxCell>
        <mxCell id="zPtjtjYE5Ii2rIJAp5HN-69" style="edgeStyle=orthogonalEdgeStyle;rounded=0;orthogonalLoop=1;jettySize=auto;html=1;exitX=1;exitY=0.5;exitDx=0;exitDy=0;entryX=0;entryY=0.75;entryDx=0;entryDy=0;" edge="1" parent="zPtjtjYE5Ii2rIJAp5HN-1" source="zPtjtjYE5Ii2rIJAp5HN-70" target="zPtjtjYE5Ii2rIJAp5HN-33">
          <mxGeometry relative="1" as="geometry">
            <mxPoint x="540.0869777513587" y="476.6956521739131" as="targetPoint" />
            <Array as="points">
              <mxPoint x="532" y="477" />
              <mxPoint x="532" y="428" />
            </Array>
          </mxGeometry>
        </mxCell>
        <mxCell id="zPtjtjYE5Ii2rIJAp5HN-70" value="one_pulse" style="rounded=1;whiteSpace=wrap;html=1;" vertex="1" parent="zPtjtjYE5Ii2rIJAp5HN-1">
          <mxGeometry x="339" y="458" width="76" height="37" as="geometry" />
        </mxCell>
        <mxCell id="zPtjtjYE5Ii2rIJAp5HN-71" style="edgeStyle=orthogonalEdgeStyle;rounded=0;orthogonalLoop=1;jettySize=auto;html=1;exitX=0.5;exitY=1;exitDx=0;exitDy=0;entryX=0.5;entryY=1;entryDx=0;entryDy=0;startArrow=oval;startFill=1;" edge="1" parent="zPtjtjYE5Ii2rIJAp5HN-1" target="zPtjtjYE5Ii2rIJAp5HN-73">
          <mxGeometry relative="1" as="geometry">
            <mxPoint x="377.28571428571433" y="591.4000069754463" as="sourcePoint" />
          </mxGeometry>
        </mxCell>
        <mxCell id="zPtjtjYE5Ii2rIJAp5HN-72" style="edgeStyle=orthogonalEdgeStyle;rounded=0;orthogonalLoop=1;jettySize=auto;html=1;exitX=1;exitY=0.5;exitDx=0;exitDy=0;entryX=0.005;entryY=0.88;entryDx=0;entryDy=0;entryPerimeter=0;" edge="1" parent="zPtjtjYE5Ii2rIJAp5HN-1" source="zPtjtjYE5Ii2rIJAp5HN-73" target="zPtjtjYE5Ii2rIJAp5HN-33">
          <mxGeometry relative="1" as="geometry">
            <mxPoint x="544" y="551" as="targetPoint" />
          </mxGeometry>
        </mxCell>
        <mxCell id="zPtjtjYE5Ii2rIJAp5HN-73" value="one_pulse" style="rounded=1;whiteSpace=wrap;html=1;" vertex="1" parent="zPtjtjYE5Ii2rIJAp5HN-1">
          <mxGeometry x="339" y="534" width="76" height="37" as="geometry" />
        </mxCell>
        <mxCell id="zPtjtjYE5Ii2rIJAp5HN-74" style="edgeStyle=orthogonalEdgeStyle;rounded=0;orthogonalLoop=1;jettySize=auto;html=1;exitX=1;exitY=0.5;exitDx=0;exitDy=0;entryX=0;entryY=0.25;entryDx=0;entryDy=0;" edge="1" parent="zPtjtjYE5Ii2rIJAp5HN-1" source="zPtjtjYE5Ii2rIJAp5HN-75" target="zPtjtjYE5Ii2rIJAp5HN-37">
          <mxGeometry relative="1" as="geometry">
            <mxPoint x="544" y="626" as="targetPoint" />
            <Array as="points">
              <mxPoint x="554" y="628" />
              <mxPoint x="554" y="475" />
            </Array>
          </mxGeometry>
        </mxCell>
        <mxCell id="zPtjtjYE5Ii2rIJAp5HN-75" value="one_pulse" style="rounded=1;whiteSpace=wrap;html=1;" vertex="1" parent="zPtjtjYE5Ii2rIJAp5HN-1">
          <mxGeometry x="339" y="609" width="76" height="37" as="geometry" />
        </mxCell>
        <mxCell id="zPtjtjYE5Ii2rIJAp5HN-76" style="edgeStyle=orthogonalEdgeStyle;rounded=0;orthogonalLoop=1;jettySize=auto;html=1;exitX=0;exitY=0.5;exitDx=0;exitDy=0;entryX=0;entryY=0.5;entryDx=0;entryDy=0;startArrow=oval;startFill=1;" edge="1" parent="zPtjtjYE5Ii2rIJAp5HN-1" target="zPtjtjYE5Ii2rIJAp5HN-78">
          <mxGeometry relative="1" as="geometry">
            <mxPoint x="198.00002373589405" y="920.6666497124565" as="sourcePoint" />
            <Array as="points">
              <mxPoint x="198" y="898" />
            </Array>
          </mxGeometry>
        </mxCell>
        <mxCell id="zPtjtjYE5Ii2rIJAp5HN-77" style="edgeStyle=orthogonalEdgeStyle;rounded=0;orthogonalLoop=1;jettySize=auto;html=1;exitX=1;exitY=0.5;exitDx=0;exitDy=0;endArrow=none;endFill=0;" edge="1" parent="zPtjtjYE5Ii2rIJAp5HN-1" source="zPtjtjYE5Ii2rIJAp5HN-78">
          <mxGeometry relative="1" as="geometry">
            <mxPoint x="826" y="787" as="targetPoint" />
          </mxGeometry>
        </mxCell>
        <mxCell id="zPtjtjYE5Ii2rIJAp5HN-78" value="clock_divider" style="rounded=1;whiteSpace=wrap;html=1;" vertex="1" parent="zPtjtjYE5Ii2rIJAp5HN-1">
          <mxGeometry x="230" y="879" width="125" height="37" as="geometry" />
        </mxCell>
        <mxCell id="zPtjtjYE5Ii2rIJAp5HN-79" style="edgeStyle=orthogonalEdgeStyle;rounded=0;orthogonalLoop=1;jettySize=auto;html=1;entryX=0;entryY=0.5;entryDx=0;entryDy=0;" edge="1" parent="zPtjtjYE5Ii2rIJAp5HN-1" target="zPtjtjYE5Ii2rIJAp5HN-81">
          <mxGeometry relative="1" as="geometry">
            <mxPoint x="170" y="920" as="sourcePoint" />
            <Array as="points">
              <mxPoint x="166" y="920" />
              <mxPoint x="198" y="920" />
              <mxPoint x="198" y="947" />
            </Array>
          </mxGeometry>
        </mxCell>
        <mxCell id="zPtjtjYE5Ii2rIJAp5HN-80" style="edgeStyle=orthogonalEdgeStyle;rounded=0;orthogonalLoop=1;jettySize=auto;html=1;exitX=1;exitY=0.5;exitDx=0;exitDy=0;entryX=0.75;entryY=1;entryDx=0;entryDy=0;" edge="1" parent="zPtjtjYE5Ii2rIJAp5HN-1" source="zPtjtjYE5Ii2rIJAp5HN-81" target="zPtjtjYE5Ii2rIJAp5HN-22">
          <mxGeometry relative="1" as="geometry">
            <mxPoint x="527" y="844" as="targetPoint" />
          </mxGeometry>
        </mxCell>
        <mxCell id="zPtjtjYE5Ii2rIJAp5HN-81" value="clock_divider_0_01" style="rounded=1;whiteSpace=wrap;html=1;" vertex="1" parent="zPtjtjYE5Ii2rIJAp5HN-1">
          <mxGeometry x="230" y="928" width="126" height="37" as="geometry" />
        </mxCell>
        <mxCell id="zPtjtjYE5Ii2rIJAp5HN-82" value="clk" style="text;html=1;align=center;verticalAlign=middle;resizable=0;points=[];autosize=1;strokeColor=none;fillColor=none;" vertex="1" parent="zPtjtjYE5Ii2rIJAp5HN-1">
          <mxGeometry x="133" y="906" width="33" height="26" as="geometry" />
        </mxCell>
        <mxCell id="zPtjtjYE5Ii2rIJAp5HN-83" value="clk_div_13" style="text;html=1;align=center;verticalAlign=middle;resizable=0;points=[];autosize=1;strokeColor=none;fillColor=none;" vertex="1" parent="zPtjtjYE5Ii2rIJAp5HN-1">
          <mxGeometry x="356" y="870" width="75" height="26" as="geometry" />
        </mxCell>
        <mxCell id="zPtjtjYE5Ii2rIJAp5HN-84" value="clk_div_0_01" style="text;html=1;align=center;verticalAlign=middle;resizable=0;points=[];autosize=1;strokeColor=none;fillColor=none;" vertex="1" parent="zPtjtjYE5Ii2rIJAp5HN-1">
          <mxGeometry x="356" y="918" width="88" height="26" as="geometry" />
        </mxCell>
        <mxCell id="zPtjtjYE5Ii2rIJAp5HN-85" value="rst" style="text;html=1;align=center;verticalAlign=middle;resizable=0;points=[];autosize=1;strokeColor=none;fillColor=none;" vertex="1" parent="zPtjtjYE5Ii2rIJAp5HN-1">
          <mxGeometry x="825" y="803" width="31" height="26" as="geometry" />
        </mxCell>
        <mxCell id="zPtjtjYE5Ii2rIJAp5HN-86" value="stop" style="text;html=1;align=center;verticalAlign=middle;resizable=0;points=[];autosize=1;strokeColor=none;fillColor=none;" vertex="1" parent="zPtjtjYE5Ii2rIJAp5HN-1">
          <mxGeometry x="145" y="463.5" width="41" height="26" as="geometry" />
        </mxCell>
        <mxCell id="zPtjtjYE5Ii2rIJAp5HN-87" value="start" style="text;html=1;align=center;verticalAlign=middle;resizable=0;points=[];autosize=1;strokeColor=none;fillColor=none;" vertex="1" parent="zPtjtjYE5Ii2rIJAp5HN-1">
          <mxGeometry x="145" y="539.75" width="41" height="26" as="geometry" />
        </mxCell>
        <mxCell id="zPtjtjYE5Ii2rIJAp5HN-88" value="direction" style="text;html=1;align=center;verticalAlign=middle;resizable=0;points=[];autosize=1;strokeColor=none;fillColor=none;" vertex="1" parent="zPtjtjYE5Ii2rIJAp5HN-1">
          <mxGeometry x="126" y="612.75" width="63" height="26" as="geometry" />
        </mxCell>
        <mxCell id="zPtjtjYE5Ii2rIJAp5HN-89" style="edgeStyle=orthogonalEdgeStyle;rounded=0;orthogonalLoop=1;jettySize=auto;html=1;exitX=0.5;exitY=1;exitDx=0;exitDy=0;entryX=0.5;entryY=1;entryDx=0;entryDy=0;startArrow=oval;startFill=1;" edge="1" parent="zPtjtjYE5Ii2rIJAp5HN-1">
          <mxGeometry relative="1" as="geometry">
            <mxPoint x="276" y="646.25" as="targetPoint" />
            <mxPoint x="438" y="666.25" as="sourcePoint" />
            <Array as="points">
              <mxPoint x="436" y="666.25" />
              <mxPoint x="276" y="666.25" />
            </Array>
          </mxGeometry>
        </mxCell>
        <mxCell id="zPtjtjYE5Ii2rIJAp5HN-90" style="edgeStyle=orthogonalEdgeStyle;rounded=0;orthogonalLoop=1;jettySize=auto;html=1;exitX=0.5;exitY=1;exitDx=0;exitDy=0;entryX=0.5;entryY=1;entryDx=0;entryDy=0;startArrow=oval;startFill=1;" edge="1" parent="zPtjtjYE5Ii2rIJAp5HN-1">
          <mxGeometry relative="1" as="geometry">
            <mxPoint x="376.86" y="645.05" as="targetPoint" />
            <mxPoint x="377.14571428571435" y="665.4500069754463" as="sourcePoint" />
          </mxGeometry>
        </mxCell>
        <mxCell id="zPtjtjYE5Ii2rIJAp5HN-91" value="stop_pulse" style="text;html=1;align=center;verticalAlign=middle;resizable=0;points=[];autosize=1;strokeColor=none;fillColor=none;" vertex="1" parent="zPtjtjYE5Ii2rIJAp5HN-1">
          <mxGeometry x="417" y="450" width="76" height="26" as="geometry" />
        </mxCell>
        <mxCell id="zPtjtjYE5Ii2rIJAp5HN-92" value="start_pulse" style="text;html=1;align=center;verticalAlign=middle;resizable=0;points=[];autosize=1;strokeColor=none;fillColor=none;" vertex="1" parent="zPtjtjYE5Ii2rIJAp5HN-1">
          <mxGeometry x="412" y="529.75" width="77" height="26" as="geometry" />
        </mxCell>
        <mxCell id="zPtjtjYE5Ii2rIJAp5HN-93" value="direction_pulse" style="text;html=1;align=center;verticalAlign=middle;resizable=0;points=[];autosize=1;strokeColor=none;fillColor=none;" vertex="1" parent="zPtjtjYE5Ii2rIJAp5HN-1">
          <mxGeometry x="409" y="605" width="99" height="26" as="geometry" />
        </mxCell>
        <mxCell id="zPtjtjYE5Ii2rIJAp5HN-94" style="edgeStyle=orthogonalEdgeStyle;rounded=0;orthogonalLoop=1;jettySize=auto;html=1;exitX=0.75;exitY=1;exitDx=0;exitDy=0;entryX=0.75;entryY=1;entryDx=0;entryDy=0;startArrow=oval;startFill=1;" edge="1" parent="zPtjtjYE5Ii2rIJAp5HN-1">
          <mxGeometry relative="1" as="geometry">
            <mxPoint x="891.63" y="531.25" as="targetPoint" />
            <mxPoint x="827.9950987413196" y="552.9166841052828" as="sourcePoint" />
            <Array as="points">
              <mxPoint x="827.63" y="550.25" />
              <mxPoint x="891.63" y="550.25" />
            </Array>
          </mxGeometry>
        </mxCell>
        <mxCell id="zPtjtjYE5Ii2rIJAp5HN-95" style="edgeStyle=orthogonalEdgeStyle;rounded=0;orthogonalLoop=1;jettySize=auto;html=1;exitX=0.75;exitY=1;exitDx=0;exitDy=0;entryX=0.75;entryY=1;entryDx=0;entryDy=0;startArrow=oval;startFill=1;" edge="1" parent="zPtjtjYE5Ii2rIJAp5HN-1">
          <mxGeometry relative="1" as="geometry">
            <mxPoint x="890.63" y="601" as="targetPoint" />
            <mxPoint x="826.9950987413196" y="622.6666841052828" as="sourcePoint" />
            <Array as="points">
              <mxPoint x="826.63" y="620" />
              <mxPoint x="890.63" y="620" />
            </Array>
          </mxGeometry>
        </mxCell>
        <mxCell id="zPtjtjYE5Ii2rIJAp5HN-96" style="edgeStyle=orthogonalEdgeStyle;rounded=0;orthogonalLoop=1;jettySize=auto;html=1;entryX=-0.01;entryY=0.368;entryDx=0;entryDy=0;startArrow=oval;startFill=1;entryPerimeter=0;" edge="1" parent="zPtjtjYE5Ii2rIJAp5HN-1">
          <mxGeometry relative="1" as="geometry">
            <mxPoint x="674" y="370.5" as="targetPoint" />
            <mxPoint x="571" y="371" as="sourcePoint" />
          </mxGeometry>
        </mxCell>
        <mxCell id="zPtjtjYE5Ii2rIJAp5HN-97" style="edgeStyle=orthogonalEdgeStyle;rounded=0;orthogonalLoop=1;jettySize=auto;html=1;exitX=1;exitY=0.5;exitDx=0;exitDy=0;" edge="1" parent="zPtjtjYE5Ii2rIJAp5HN-1" source="zPtjtjYE5Ii2rIJAp5HN-98">
          <mxGeometry relative="1" as="geometry">
            <mxPoint x="1187.6923335148736" y="582.6153846153845" as="targetPoint" />
          </mxGeometry>
        </mxCell>
        <mxCell id="zPtjtjYE5Ii2rIJAp5HN-98" value="DISPLAY&lt;br&gt;Logic" style="rounded=1;whiteSpace=wrap;html=1;" vertex="1" parent="zPtjtjYE5Ii2rIJAp5HN-1">
          <mxGeometry x="1073" y="564" width="73" height="37" as="geometry" />
        </mxCell>
        <mxCell id="zPtjtjYE5Ii2rIJAp5HN-99" value="DISPLAY" style="text;html=1;align=center;verticalAlign=middle;resizable=0;points=[];autosize=1;strokeColor=none;fillColor=none;" vertex="1" parent="zPtjtjYE5Ii2rIJAp5HN-1">
          <mxGeometry x="1183" y="570" width="68" height="26" as="geometry" />
        </mxCell>
        <mxCell id="zPtjtjYE5Ii2rIJAp5HN-100" style="edgeStyle=orthogonalEdgeStyle;rounded=0;orthogonalLoop=1;jettySize=auto;html=1;exitX=1;exitY=0.5;exitDx=0;exitDy=0;" edge="1" parent="zPtjtjYE5Ii2rIJAp5HN-1" source="zPtjtjYE5Ii2rIJAp5HN-101">
          <mxGeometry relative="1" as="geometry">
            <mxPoint x="1175.9999694824219" y="685.6923076923076" as="targetPoint" />
          </mxGeometry>
        </mxCell>
        <mxCell id="6STNdwLbXQUGIYIAoHTC-40" style="edgeStyle=orthogonalEdgeStyle;rounded=0;orthogonalLoop=1;jettySize=auto;html=1;exitX=0;exitY=0.25;exitDx=0;exitDy=0;startArrow=oval;startFill=1;" edge="1" parent="zPtjtjYE5Ii2rIJAp5HN-1">
          <mxGeometry relative="1" as="geometry">
            <mxPoint x="1073" y="656" as="targetPoint" />
            <mxPoint x="996.2400512695312" y="305.52001953125" as="sourcePoint" />
            <Array as="points">
              <mxPoint x="996" y="655" />
              <mxPoint x="1051" y="655" />
              <mxPoint x="1051" y="654" />
              <mxPoint x="1069" y="654" />
              <mxPoint x="1069" y="656" />
            </Array>
          </mxGeometry>
        </mxCell>
        <mxCell id="zPtjtjYE5Ii2rIJAp5HN-101" value="led&lt;br&gt;Logic" style="rounded=1;whiteSpace=wrap;html=1;" vertex="1" parent="zPtjtjYE5Ii2rIJAp5HN-1">
          <mxGeometry x="1073" y="644" width="49" height="69.75" as="geometry" />
        </mxCell>
        <mxCell id="zPtjtjYE5Ii2rIJAp5HN-102" value="led" style="text;html=1;align=center;verticalAlign=middle;resizable=0;points=[];autosize=1;strokeColor=none;fillColor=none;" vertex="1" parent="zPtjtjYE5Ii2rIJAp5HN-1">
          <mxGeometry x="1175" y="672.38" width="34" height="26" as="geometry" />
        </mxCell>
        <mxCell id="6STNdwLbXQUGIYIAoHTC-0" style="edgeStyle=orthogonalEdgeStyle;rounded=0;orthogonalLoop=1;jettySize=auto;html=1;exitX=0;exitY=0.5;exitDx=0;exitDy=0;entryX=0;entryY=0.5;entryDx=0;entryDy=0;" edge="1" parent="zPtjtjYE5Ii2rIJAp5HN-1" target="6STNdwLbXQUGIYIAoHTC-2">
          <mxGeometry relative="1" as="geometry">
            <mxPoint x="187.34783670176648" y="707.4582608695653" as="sourcePoint" />
          </mxGeometry>
        </mxCell>
        <mxCell id="6STNdwLbXQUGIYIAoHTC-1" style="edgeStyle=orthogonalEdgeStyle;rounded=0;orthogonalLoop=1;jettySize=auto;html=1;exitX=1;exitY=0.5;exitDx=0;exitDy=0;entryX=0;entryY=0.5;entryDx=0;entryDy=0;" edge="1" parent="zPtjtjYE5Ii2rIJAp5HN-1" source="6STNdwLbXQUGIYIAoHTC-2" target="6STNdwLbXQUGIYIAoHTC-3">
          <mxGeometry relative="1" as="geometry" />
        </mxCell>
        <mxCell id="6STNdwLbXQUGIYIAoHTC-2" value="debounce" style="rounded=1;whiteSpace=wrap;html=1;" vertex="1" parent="zPtjtjYE5Ii2rIJAp5HN-1">
          <mxGeometry x="242" y="689.23" width="76" height="37" as="geometry" />
        </mxCell>
        <mxCell id="6STNdwLbXQUGIYIAoHTC-16" style="edgeStyle=orthogonalEdgeStyle;rounded=0;orthogonalLoop=1;jettySize=auto;html=1;exitX=1;exitY=0.5;exitDx=0;exitDy=0;entryX=-0.004;entryY=0.899;entryDx=0;entryDy=0;entryPerimeter=0;" edge="1" parent="zPtjtjYE5Ii2rIJAp5HN-1" source="6STNdwLbXQUGIYIAoHTC-3" target="zPtjtjYE5Ii2rIJAp5HN-52">
          <mxGeometry relative="1" as="geometry">
            <mxPoint x="521.0967604114162" y="707.5806451612902" as="targetPoint" />
          </mxGeometry>
        </mxCell>
        <mxCell id="6STNdwLbXQUGIYIAoHTC-3" value="one_pulse" style="rounded=1;whiteSpace=wrap;html=1;" vertex="1" parent="zPtjtjYE5Ii2rIJAp5HN-1">
          <mxGeometry x="341" y="688.98" width="76" height="37" as="geometry" />
        </mxCell>
        <mxCell id="6STNdwLbXQUGIYIAoHTC-4" value="increase" style="text;html=1;align=center;verticalAlign=middle;resizable=0;points=[];autosize=1;strokeColor=none;fillColor=none;" vertex="1" parent="zPtjtjYE5Ii2rIJAp5HN-1">
          <mxGeometry x="128" y="692.73" width="63" height="26" as="geometry" />
        </mxCell>
        <mxCell id="6STNdwLbXQUGIYIAoHTC-5" style="edgeStyle=orthogonalEdgeStyle;rounded=0;orthogonalLoop=1;jettySize=auto;html=1;exitX=0.5;exitY=1;exitDx=0;exitDy=0;entryX=0.5;entryY=1;entryDx=0;entryDy=0;startArrow=oval;startFill=1;" edge="1" parent="zPtjtjYE5Ii2rIJAp5HN-1">
          <mxGeometry relative="1" as="geometry">
            <mxPoint x="278" y="726.23" as="targetPoint" />
            <mxPoint x="440" y="746.23" as="sourcePoint" />
            <Array as="points">
              <mxPoint x="438" y="746.23" />
              <mxPoint x="278" y="746.23" />
            </Array>
          </mxGeometry>
        </mxCell>
        <mxCell id="6STNdwLbXQUGIYIAoHTC-6" style="edgeStyle=orthogonalEdgeStyle;rounded=0;orthogonalLoop=1;jettySize=auto;html=1;exitX=0.5;exitY=1;exitDx=0;exitDy=0;entryX=0.5;entryY=1;entryDx=0;entryDy=0;startArrow=oval;startFill=1;" edge="1" parent="zPtjtjYE5Ii2rIJAp5HN-1">
          <mxGeometry relative="1" as="geometry">
            <mxPoint x="378.86" y="725.03" as="targetPoint" />
            <mxPoint x="379.14571428571435" y="745.4300069754463" as="sourcePoint" />
          </mxGeometry>
        </mxCell>
        <mxCell id="6STNdwLbXQUGIYIAoHTC-7" value="increase_pulse" style="text;html=1;align=center;verticalAlign=middle;resizable=0;points=[];autosize=1;strokeColor=none;fillColor=none;" vertex="1" parent="zPtjtjYE5Ii2rIJAp5HN-1">
          <mxGeometry x="412" y="677" width="99" height="26" as="geometry" />
        </mxCell>
        <mxCell id="6STNdwLbXQUGIYIAoHTC-8" style="edgeStyle=orthogonalEdgeStyle;rounded=0;orthogonalLoop=1;jettySize=auto;html=1;exitX=0;exitY=0.5;exitDx=0;exitDy=0;entryX=0;entryY=0.5;entryDx=0;entryDy=0;" edge="1" parent="zPtjtjYE5Ii2rIJAp5HN-1" target="6STNdwLbXQUGIYIAoHTC-10">
          <mxGeometry relative="1" as="geometry">
            <mxPoint x="187.34783670176648" y="779.4782608695652" as="sourcePoint" />
          </mxGeometry>
        </mxCell>
        <mxCell id="6STNdwLbXQUGIYIAoHTC-9" style="edgeStyle=orthogonalEdgeStyle;rounded=0;orthogonalLoop=1;jettySize=auto;html=1;exitX=1;exitY=0.5;exitDx=0;exitDy=0;entryX=0;entryY=0.5;entryDx=0;entryDy=0;" edge="1" parent="zPtjtjYE5Ii2rIJAp5HN-1" source="6STNdwLbXQUGIYIAoHTC-10" target="6STNdwLbXQUGIYIAoHTC-11">
          <mxGeometry relative="1" as="geometry" />
        </mxCell>
        <mxCell id="6STNdwLbXQUGIYIAoHTC-10" value="debounce" style="rounded=1;whiteSpace=wrap;html=1;" vertex="1" parent="zPtjtjYE5Ii2rIJAp5HN-1">
          <mxGeometry x="242" y="761.25" width="76" height="37" as="geometry" />
        </mxCell>
        <mxCell id="6STNdwLbXQUGIYIAoHTC-19" style="edgeStyle=orthogonalEdgeStyle;rounded=0;orthogonalLoop=1;jettySize=auto;html=1;exitX=1;exitY=0.5;exitDx=0;exitDy=0;entryX=0;entryY=0.12;entryDx=0;entryDy=0;entryPerimeter=0;" edge="1" parent="zPtjtjYE5Ii2rIJAp5HN-1" source="6STNdwLbXQUGIYIAoHTC-11" target="zPtjtjYE5Ii2rIJAp5HN-52">
          <mxGeometry relative="1" as="geometry">
            <mxPoint x="523.6774055727067" y="779.1935483870968" as="targetPoint" />
          </mxGeometry>
        </mxCell>
        <mxCell id="6STNdwLbXQUGIYIAoHTC-11" value="one_pulse" style="rounded=1;whiteSpace=wrap;html=1;" vertex="1" parent="zPtjtjYE5Ii2rIJAp5HN-1">
          <mxGeometry x="341" y="761" width="76" height="37" as="geometry" />
        </mxCell>
        <mxCell id="6STNdwLbXQUGIYIAoHTC-12" value="decrease" style="text;html=1;align=center;verticalAlign=middle;resizable=0;points=[];autosize=1;strokeColor=none;fillColor=none;" vertex="1" parent="zPtjtjYE5Ii2rIJAp5HN-1">
          <mxGeometry x="126" y="764.75" width="67" height="26" as="geometry" />
        </mxCell>
        <mxCell id="6STNdwLbXQUGIYIAoHTC-13" style="edgeStyle=orthogonalEdgeStyle;rounded=0;orthogonalLoop=1;jettySize=auto;html=1;exitX=0.5;exitY=1;exitDx=0;exitDy=0;entryX=0.5;entryY=1;entryDx=0;entryDy=0;startArrow=oval;startFill=1;" edge="1" parent="zPtjtjYE5Ii2rIJAp5HN-1">
          <mxGeometry relative="1" as="geometry">
            <mxPoint x="278" y="798.25" as="targetPoint" />
            <mxPoint x="440" y="818.25" as="sourcePoint" />
            <Array as="points">
              <mxPoint x="438" y="818.25" />
              <mxPoint x="278" y="818.25" />
            </Array>
          </mxGeometry>
        </mxCell>
        <mxCell id="6STNdwLbXQUGIYIAoHTC-14" style="edgeStyle=orthogonalEdgeStyle;rounded=0;orthogonalLoop=1;jettySize=auto;html=1;exitX=0.5;exitY=1;exitDx=0;exitDy=0;entryX=0.5;entryY=1;entryDx=0;entryDy=0;startArrow=oval;startFill=1;" edge="1" parent="zPtjtjYE5Ii2rIJAp5HN-1">
          <mxGeometry relative="1" as="geometry">
            <mxPoint x="378.86" y="797.05" as="targetPoint" />
            <mxPoint x="379.14571428571435" y="817.4500069754463" as="sourcePoint" />
          </mxGeometry>
        </mxCell>
        <mxCell id="6STNdwLbXQUGIYIAoHTC-22" value="decrease_pulse" style="text;html=1;align=center;verticalAlign=middle;resizable=0;points=[];autosize=1;strokeColor=none;fillColor=none;" vertex="1" parent="zPtjtjYE5Ii2rIJAp5HN-1">
          <mxGeometry x="415" y="755" width="103" height="26" as="geometry" />
        </mxCell>
        <mxCell id="6STNdwLbXQUGIYIAoHTC-42" style="edgeStyle=orthogonalEdgeStyle;rounded=0;orthogonalLoop=1;jettySize=auto;html=1;exitX=0;exitY=0.5;exitDx=0;exitDy=0;entryX=0;entryY=0.5;entryDx=0;entryDy=0;startArrow=oval;startFill=1;" edge="1" parent="zPtjtjYE5Ii2rIJAp5HN-1" target="6STNdwLbXQUGIYIAoHTC-24">
          <mxGeometry relative="1" as="geometry">
            <mxPoint x="620.6667044503347" y="306.4761904761905" as="sourcePoint" />
          </mxGeometry>
        </mxCell>
        <mxCell id="6STNdwLbXQUGIYIAoHTC-50" style="edgeStyle=orthogonalEdgeStyle;rounded=0;orthogonalLoop=1;jettySize=auto;html=1;exitX=0;exitY=0.75;exitDx=0;exitDy=0;entryX=0;entryY=0.75;entryDx=0;entryDy=0;startArrow=oval;startFill=1;" edge="1" parent="zPtjtjYE5Ii2rIJAp5HN-1" target="6STNdwLbXQUGIYIAoHTC-24">
          <mxGeometry relative="1" as="geometry">
            <mxPoint x="569.7059164608227" y="317.2352941176471" as="sourcePoint" />
          </mxGeometry>
        </mxCell>
        <mxCell id="6STNdwLbXQUGIYIAoHTC-52" style="edgeStyle=orthogonalEdgeStyle;rounded=0;orthogonalLoop=1;jettySize=auto;html=1;exitX=1;exitY=0.5;exitDx=0;exitDy=0;" edge="1" parent="zPtjtjYE5Ii2rIJAp5HN-1" source="6STNdwLbXQUGIYIAoHTC-24">
          <mxGeometry relative="1" as="geometry">
            <mxPoint x="851.0000289113898" y="305.52631578947376" as="targetPoint" />
          </mxGeometry>
        </mxCell>
        <mxCell id="6STNdwLbXQUGIYIAoHTC-24" value="next_counter2&lt;br&gt;Logic" style="rounded=1;whiteSpace=wrap;html=1;" vertex="1" parent="zPtjtjYE5Ii2rIJAp5HN-1">
          <mxGeometry x="671" y="283" width="112" height="46" as="geometry" />
        </mxCell>
        <mxCell id="6STNdwLbXQUGIYIAoHTC-30" style="edgeStyle=orthogonalEdgeStyle;rounded=0;orthogonalLoop=1;jettySize=auto;html=1;exitX=1;exitY=0.5;exitDx=0;exitDy=0;" edge="1" parent="zPtjtjYE5Ii2rIJAp5HN-1" source="6STNdwLbXQUGIYIAoHTC-25">
          <mxGeometry relative="1" as="geometry">
            <mxPoint x="1053.5714133126396" y="306.28571428571433" as="targetPoint" />
          </mxGeometry>
        </mxCell>
        <mxCell id="6STNdwLbXQUGIYIAoHTC-25" value="DFF" style="rounded=1;whiteSpace=wrap;html=1;" vertex="1" parent="zPtjtjYE5Ii2rIJAp5HN-1">
          <mxGeometry x="853" y="287.5" width="48" height="37" as="geometry" />
        </mxCell>
        <mxCell id="6STNdwLbXQUGIYIAoHTC-28" style="edgeStyle=orthogonalEdgeStyle;rounded=0;orthogonalLoop=1;jettySize=auto;html=1;exitX=1;exitY=0.5;exitDx=0;exitDy=0;" edge="1" parent="zPtjtjYE5Ii2rIJAp5HN-1" source="6STNdwLbXQUGIYIAoHTC-26">
          <mxGeometry relative="1" as="geometry">
            <mxPoint x="1056" y="216" as="targetPoint" />
          </mxGeometry>
        </mxCell>
        <mxCell id="6STNdwLbXQUGIYIAoHTC-26" value="DFF" style="rounded=1;whiteSpace=wrap;html=1;" vertex="1" parent="zPtjtjYE5Ii2rIJAp5HN-1">
          <mxGeometry x="854" y="197.5" width="48" height="37" as="geometry" />
        </mxCell>
        <mxCell id="6STNdwLbXQUGIYIAoHTC-51" style="edgeStyle=orthogonalEdgeStyle;rounded=0;orthogonalLoop=1;jettySize=auto;html=1;exitX=1;exitY=0.5;exitDx=0;exitDy=0;entryX=0;entryY=0.75;entryDx=0;entryDy=0;" edge="1" parent="zPtjtjYE5Ii2rIJAp5HN-1" source="6STNdwLbXQUGIYIAoHTC-27" target="6STNdwLbXQUGIYIAoHTC-26">
          <mxGeometry relative="1" as="geometry" />
        </mxCell>
        <mxCell id="6STNdwLbXQUGIYIAoHTC-27" value="next_bcd_guess&lt;br&gt;Logic" style="rounded=1;whiteSpace=wrap;html=1;" vertex="1" parent="zPtjtjYE5Ii2rIJAp5HN-1">
          <mxGeometry x="671" y="164" width="112" height="104" as="geometry" />
        </mxCell>
        <mxCell id="6STNdwLbXQUGIYIAoHTC-29" value="bcd_guess" style="text;html=1;align=center;verticalAlign=middle;resizable=0;points=[];autosize=1;strokeColor=none;fillColor=none;" vertex="1" parent="zPtjtjYE5Ii2rIJAp5HN-1">
          <mxGeometry x="1056" y="203" width="76" height="26" as="geometry" />
        </mxCell>
        <mxCell id="6STNdwLbXQUGIYIAoHTC-31" value="counter_2" style="text;html=1;align=center;verticalAlign=middle;resizable=0;points=[];autosize=1;strokeColor=none;fillColor=none;" vertex="1" parent="zPtjtjYE5Ii2rIJAp5HN-1">
          <mxGeometry x="1051" y="293" width="71" height="26" as="geometry" />
        </mxCell>
        <mxCell id="6STNdwLbXQUGIYIAoHTC-32" style="edgeStyle=orthogonalEdgeStyle;rounded=0;orthogonalLoop=1;jettySize=auto;html=1;entryX=0.5;entryY=1;entryDx=0;entryDy=0;startArrow=oval;startFill=1;" edge="1" parent="zPtjtjYE5Ii2rIJAp5HN-1">
          <mxGeometry relative="1" as="geometry">
            <mxPoint x="879" y="400" as="targetPoint" />
            <mxPoint x="842" y="410" as="sourcePoint" />
            <Array as="points">
              <mxPoint x="843" y="409" />
              <mxPoint x="879" y="409" />
            </Array>
          </mxGeometry>
        </mxCell>
        <mxCell id="6STNdwLbXQUGIYIAoHTC-33" style="edgeStyle=orthogonalEdgeStyle;rounded=0;orthogonalLoop=1;jettySize=auto;html=1;entryX=0.5;entryY=1;entryDx=0;entryDy=0;startArrow=oval;startFill=1;" edge="1" parent="zPtjtjYE5Ii2rIJAp5HN-1">
          <mxGeometry relative="1" as="geometry">
            <mxPoint x="877" y="321" as="targetPoint" />
            <mxPoint x="840" y="331" as="sourcePoint" />
            <Array as="points">
              <mxPoint x="841" y="330" />
              <mxPoint x="877" y="330" />
            </Array>
          </mxGeometry>
        </mxCell>
        <mxCell id="6STNdwLbXQUGIYIAoHTC-38" style="edgeStyle=orthogonalEdgeStyle;rounded=0;orthogonalLoop=1;jettySize=auto;html=1;entryX=0.75;entryY=1;entryDx=0;entryDy=0;startArrow=oval;startFill=1;" edge="1" parent="zPtjtjYE5Ii2rIJAp5HN-1">
          <mxGeometry relative="1" as="geometry">
            <mxPoint x="888.63" y="323.33000000000004" as="targetPoint" />
            <mxPoint x="812" y="345" as="sourcePoint" />
            <Array as="points">
              <mxPoint x="824.63" y="342.33000000000004" />
              <mxPoint x="888.63" y="342.33000000000004" />
            </Array>
          </mxGeometry>
        </mxCell>
        <mxCell id="6STNdwLbXQUGIYIAoHTC-39" style="edgeStyle=orthogonalEdgeStyle;rounded=0;orthogonalLoop=1;jettySize=auto;html=1;entryX=0.75;entryY=1;entryDx=0;entryDy=0;startArrow=oval;startFill=1;" edge="1" parent="zPtjtjYE5Ii2rIJAp5HN-1">
          <mxGeometry relative="1" as="geometry">
            <mxPoint x="890.63" y="669.75" as="targetPoint" />
            <mxPoint x="814" y="691.4200000000001" as="sourcePoint" />
            <Array as="points">
              <mxPoint x="826.63" y="688.75" />
              <mxPoint x="890.63" y="688.75" />
            </Array>
          </mxGeometry>
        </mxCell>
        <mxCell id="6STNdwLbXQUGIYIAoHTC-43" style="edgeStyle=orthogonalEdgeStyle;rounded=0;orthogonalLoop=1;jettySize=auto;html=1;exitX=0;exitY=0.5;exitDx=0;exitDy=0;entryX=0;entryY=0.5;entryDx=0;entryDy=0;startArrow=oval;startFill=1;" edge="1" parent="zPtjtjYE5Ii2rIJAp5HN-1">
          <mxGeometry relative="1" as="geometry">
            <mxPoint x="674" y="574.5" as="targetPoint" />
            <mxPoint x="600.2000579833984" y="574" as="sourcePoint" />
          </mxGeometry>
        </mxCell>
        <mxCell id="6STNdwLbXQUGIYIAoHTC-45" style="edgeStyle=orthogonalEdgeStyle;rounded=0;orthogonalLoop=1;jettySize=auto;html=1;exitX=0;exitY=0.5;exitDx=0;exitDy=0;entryX=0;entryY=0.5;entryDx=0;entryDy=0;startArrow=oval;startFill=1;" edge="1" parent="zPtjtjYE5Ii2rIJAp5HN-1">
          <mxGeometry relative="1" as="geometry">
            <mxPoint x="677.33" y="225" as="targetPoint" />
            <mxPoint x="626.9967044503347" y="225.47619047619048" as="sourcePoint" />
            <Array as="points">
              <mxPoint x="647.33" y="225" />
            </Array>
          </mxGeometry>
        </mxCell>
        <mxCell id="6STNdwLbXQUGIYIAoHTC-46" style="edgeStyle=orthogonalEdgeStyle;rounded=0;orthogonalLoop=1;jettySize=auto;html=1;entryX=0;entryY=0.5;entryDx=0;entryDy=0;startArrow=oval;startFill=1;" edge="1" parent="zPtjtjYE5Ii2rIJAp5HN-1">
          <mxGeometry relative="1" as="geometry">
            <mxPoint x="676.33" y="203" as="targetPoint" />
            <mxPoint x="584" y="203" as="sourcePoint" />
          </mxGeometry>
        </mxCell>
        <mxCell id="6STNdwLbXQUGIYIAoHTC-49" style="edgeStyle=orthogonalEdgeStyle;rounded=0;orthogonalLoop=1;jettySize=auto;html=1;entryX=0;entryY=0.5;entryDx=0;entryDy=0;startArrow=oval;startFill=1;" edge="1" parent="zPtjtjYE5Ii2rIJAp5HN-1">
          <mxGeometry relative="1" as="geometry">
            <mxPoint x="671" y="189" as="targetPoint" />
            <mxPoint x="572" y="189" as="sourcePoint" />
          </mxGeometry>
        </mxCell>
      </root>
    </mxGraphModel>
  </diagram>
  <diagram id="9aaLwHlCfBULSly8YU5r" name="lab4_1 state diagram">
    <mxGraphModel dx="791" dy="438" grid="0" gridSize="10" guides="1" tooltips="1" connect="1" arrows="1" fold="1" page="1" pageScale="1" pageWidth="850" pageHeight="1100" math="0" shadow="0">
      <root>
        <mxCell id="0" />
        <mxCell id="1" parent="0" />
        <mxCell id="k7fYtIdYHJTaNCAOj8rv-16" value="INITIAL" style="html=1;overflow=block;blockSpacing=1;whiteSpace=wrap;ellipse;fontSize=16.7;fontFamily=Liberation Serif;fontColor=#3a414a;spacing=3.8;strokeColor=#3a414a;strokeOpacity=100;rounded=1;absoluteArcSize=1;arcSize=9;strokeWidth=0.8;lucidId=veqC4Gp~pZCj;" vertex="1" parent="1">
          <mxGeometry x="223" y="142" width="95" height="94" as="geometry" />
        </mxCell>
        <mxCell id="k7fYtIdYHJTaNCAOj8rv-17" value="PREPARE" style="html=1;overflow=block;blockSpacing=1;whiteSpace=wrap;ellipse;fontSize=16.7;fontFamily=Liberation Serif;fontColor=#3a414a;spacing=3.8;strokeColor=#3a414a;strokeOpacity=100;rounded=1;absoluteArcSize=1;arcSize=9;strokeWidth=0.8;lucidId=MeqCZfMmrmTP;" vertex="1" parent="1">
          <mxGeometry x="541" y="141" width="100" height="95" as="geometry" />
        </mxCell>
        <mxCell id="k7fYtIdYHJTaNCAOj8rv-18" value="COUNTING" style="html=1;overflow=block;blockSpacing=1;whiteSpace=wrap;ellipse;fontSize=16.7;fontFamily=Liberation Serif;fontColor=#3a414a;spacing=3.8;strokeColor=#3a414a;strokeOpacity=100;rounded=1;absoluteArcSize=1;arcSize=9;strokeWidth=0.8;lucidId=NeqC46wK-GYa;" vertex="1" parent="1">
          <mxGeometry x="541" y="313" width="99" height="97" as="geometry" />
        </mxCell>
        <mxCell id="k7fYtIdYHJTaNCAOj8rv-19" value="" style="html=1;jettySize=18;whiteSpace=wrap;fontSize=13;strokeColor=#3a414a;strokeOpacity=100;strokeWidth=0.8;rounded=0;startArrow=none;endArrow=block;endFill=1;entryX=0.093;entryY=0.204;entryPerimeter=0;lucidId=XeqCXWwTS8VH;" edge="1" parent="1" target="k7fYtIdYHJTaNCAOj8rv-16">
          <mxGeometry width="100" height="100" relative="1" as="geometry">
            <Array as="points" />
            <mxPoint x="174" y="136" as="sourcePoint" />
          </mxGeometry>
        </mxCell>
        <mxCell id="k7fYtIdYHJTaNCAOj8rv-21" value="" style="html=1;jettySize=18;whiteSpace=wrap;fontSize=13;strokeColor=#3a414a;strokeOpacity=100;strokeWidth=0.8;rounded=1;arcSize=12;edgeStyle=orthogonalEdgeStyle;startArrow=none;endArrow=block;endFill=1;exitX=1.003;exitY=0.5;exitPerimeter=0;entryX=-0.003;entryY=0.5;entryPerimeter=0;lucidId=JfqCUn26-0Qf;" edge="1" parent="1" source="k7fYtIdYHJTaNCAOj8rv-16" target="k7fYtIdYHJTaNCAOj8rv-17">
          <mxGeometry width="100" height="100" relative="1" as="geometry">
            <Array as="points" />
          </mxGeometry>
        </mxCell>
        <mxCell id="k7fYtIdYHJTaNCAOj8rv-23" value="RESULT" style="html=1;overflow=block;blockSpacing=1;whiteSpace=wrap;ellipse;fontSize=16.7;fontFamily=Liberation Serif;fontColor=#3a414a;spacing=3.8;strokeColor=#3a414a;strokeOpacity=100;rounded=1;absoluteArcSize=1;arcSize=9;strokeWidth=0.8;lucidId=BxqCT~q6lO2s;" vertex="1" parent="1">
          <mxGeometry x="224" y="313" width="94" height="97" as="geometry" />
        </mxCell>
        <mxCell id="k7fYtIdYHJTaNCAOj8rv-24" value="" style="html=1;jettySize=18;whiteSpace=wrap;fontSize=13;strokeColor=#3a414a;strokeOpacity=100;strokeWidth=0.8;rounded=1;arcSize=12;edgeStyle=orthogonalEdgeStyle;startArrow=none;endArrow=block;endFill=1;exitX=0.5;exitY=1.003;exitPerimeter=0;entryX=0.5;entryY=-0.003;entryPerimeter=0;lucidId=0xqCsFg1s.yP;" edge="1" parent="1" source="k7fYtIdYHJTaNCAOj8rv-17" target="k7fYtIdYHJTaNCAOj8rv-18">
          <mxGeometry width="100" height="100" relative="1" as="geometry">
            <Array as="points" />
          </mxGeometry>
        </mxCell>
        <mxCell id="k7fYtIdYHJTaNCAOj8rv-26" value="" style="html=1;jettySize=18;whiteSpace=wrap;fontSize=13;strokeColor=#3a414a;strokeOpacity=100;strokeWidth=0.8;rounded=1;arcSize=12;edgeStyle=orthogonalEdgeStyle;startArrow=none;endArrow=block;endFill=1;exitX=-0.003;exitY=0.5;exitPerimeter=0;entryX=1.003;entryY=0.5;entryPerimeter=0;lucidId=KzqCYKzHOK1D;" edge="1" parent="1" source="k7fYtIdYHJTaNCAOj8rv-18" target="k7fYtIdYHJTaNCAOj8rv-23">
          <mxGeometry width="100" height="100" relative="1" as="geometry">
            <Array as="points" />
          </mxGeometry>
        </mxCell>
        <mxCell id="k7fYtIdYHJTaNCAOj8rv-28" value="" style="html=1;jettySize=18;whiteSpace=wrap;fontSize=13;strokeColor=#3a414a;strokeOpacity=100;strokeWidth=0.8;rounded=1;arcSize=12;edgeStyle=orthogonalEdgeStyle;startArrow=none;endArrow=block;endFill=1;exitX=0.5;exitY=-0.003;exitPerimeter=0;entryX=0.5;entryY=1.003;entryPerimeter=0;lucidId=uHqCRDljbd2B;" edge="1" parent="1" source="k7fYtIdYHJTaNCAOj8rv-23" target="k7fYtIdYHJTaNCAOj8rv-16">
          <mxGeometry width="100" height="100" relative="1" as="geometry">
            <Array as="points" />
          </mxGeometry>
        </mxCell>
        <mxCell id="9LAOSyrwmEAuYblyuEqe-1" value="rst == 1" style="text;html=1;align=center;verticalAlign=middle;resizable=0;points=[];autosize=1;strokeColor=none;fillColor=none;" vertex="1" parent="1">
          <mxGeometry x="127" y="110" width="59" height="26" as="geometry" />
        </mxCell>
        <mxCell id="9LAOSyrwmEAuYblyuEqe-5" value="start_pulse == 1" style="text;html=1;align=center;verticalAlign=middle;resizable=0;points=[];autosize=1;strokeColor=none;fillColor=none;" vertex="1" parent="1">
          <mxGeometry x="374" y="146" width="104" height="26" as="geometry" />
        </mxCell>
        <mxCell id="9LAOSyrwmEAuYblyuEqe-6" value="after 3 seconds" style="text;html=1;align=center;verticalAlign=middle;resizable=0;points=[];autosize=1;strokeColor=none;fillColor=none;" vertex="1" parent="1">
          <mxGeometry x="596" y="261" width="100" height="26" as="geometry" />
        </mxCell>
        <mxCell id="-Y5BjslCMmGGvsAV7XBI-1" value="&lt;font style=&quot;font-size: 14px;&quot;&gt;stop_pulse&amp;nbsp;== 1&lt;br style=&quot;border-color: var(--border-color); color: rgb(58, 65, 74); font-family: &amp;quot;Liberation Serif&amp;quot;;&quot;&gt;&lt;span style=&quot;color: rgb(58, 65, 74); font-family: &amp;quot;Liberation Serif&amp;quot;;&quot;&gt;|| (dir == UP &amp;amp;&amp;amp; bcd == 999)&lt;/span&gt;&lt;br style=&quot;border-color: var(--border-color); color: rgb(58, 65, 74); font-family: &amp;quot;Liberation Serif&amp;quot;;&quot;&gt;&lt;span style=&quot;color: rgb(58, 65, 74); font-family: &amp;quot;Liberation Serif&amp;quot;;&quot;&gt;|| (dir == DOWN &amp;amp;&amp;amp; bcd == 000)&lt;/span&gt;&lt;/font&gt;" style="text;html=1;align=center;verticalAlign=middle;resizable=0;points=[];autosize=1;strokeColor=none;fillColor=none;" vertex="1" parent="1">
          <mxGeometry x="323" y="363" width="211" height="62" as="geometry" />
        </mxCell>
        <mxCell id="-Y5BjslCMmGGvsAV7XBI-2" value="start_pulse&amp;nbsp;== 1" style="text;html=1;align=center;verticalAlign=middle;resizable=0;points=[];autosize=1;strokeColor=none;fillColor=none;" vertex="1" parent="1">
          <mxGeometry x="146" y="261" width="104" height="26" as="geometry" />
        </mxCell>
      </root>
    </mxGraphModel>
  </diagram>
  <diagram id="gyMJFMWeJeKIHkN4YyfW" name="lab4_2 state diagram">
    <mxGraphModel dx="923" dy="511" grid="0" gridSize="10" guides="1" tooltips="1" connect="1" arrows="1" fold="1" page="1" pageScale="1" pageWidth="850" pageHeight="1100" math="0" shadow="0">
      <root>
        <mxCell id="0" />
        <mxCell id="1" parent="0" />
        <mxCell id="qNkJU3pD7Zcnwa2osOYY-4" value="" style="html=1;jettySize=18;whiteSpace=wrap;fontSize=13;strokeColor=#3a414a;strokeOpacity=100;strokeWidth=0.8;rounded=0;startArrow=none;endArrow=block;endFill=1;entryX=0.05;entryY=0.259;entryPerimeter=0;lucidId=XeqCXWwTS8VH;entryDx=0;entryDy=0;" edge="1" parent="1" target="qNkJU3pD7Zcnwa2osOYY-17">
          <mxGeometry width="100" height="100" relative="1" as="geometry">
            <Array as="points" />
            <mxPoint x="305" y="110" as="sourcePoint" />
            <mxPoint x="342.83500000000004" y="125.17599999999993" as="targetPoint" />
          </mxGeometry>
        </mxCell>
        <mxCell id="qNkJU3pD7Zcnwa2osOYY-10" value="rst == 1" style="text;html=1;align=center;verticalAlign=middle;resizable=0;points=[];autosize=1;strokeColor=none;fillColor=none;" vertex="1" parent="1">
          <mxGeometry x="262" y="84" width="59" height="26" as="geometry" />
        </mxCell>
        <mxCell id="qNkJU3pD7Zcnwa2osOYY-11" value="start_pulse == 1" style="text;html=1;align=center;verticalAlign=middle;resizable=0;points=[];autosize=1;strokeColor=none;fillColor=none;" vertex="1" parent="1">
          <mxGeometry x="379" y="197" width="104" height="26" as="geometry" />
        </mxCell>
        <mxCell id="qNkJU3pD7Zcnwa2osOYY-19" style="edgeStyle=orthogonalEdgeStyle;rounded=0;orthogonalLoop=1;jettySize=auto;html=1;exitX=0.5;exitY=1;exitDx=0;exitDy=0;" edge="1" parent="1" source="qNkJU3pD7Zcnwa2osOYY-17" target="qNkJU3pD7Zcnwa2osOYY-18">
          <mxGeometry relative="1" as="geometry" />
        </mxCell>
        <mxCell id="qNkJU3pD7Zcnwa2osOYY-17" value="INITIAL" style="ellipse;whiteSpace=wrap;html=1;aspect=fixed;" vertex="1" parent="1">
          <mxGeometry x="340" y="107" width="80" height="80" as="geometry" />
        </mxCell>
        <mxCell id="qNkJU3pD7Zcnwa2osOYY-23" style="rounded=0;orthogonalLoop=1;jettySize=auto;html=1;exitX=1;exitY=1;exitDx=0;exitDy=0;entryX=0;entryY=0;entryDx=0;entryDy=0;" edge="1" parent="1" source="qNkJU3pD7Zcnwa2osOYY-18" target="qNkJU3pD7Zcnwa2osOYY-20">
          <mxGeometry relative="1" as="geometry" />
        </mxCell>
        <mxCell id="qNkJU3pD7Zcnwa2osOYY-24" style="rounded=0;orthogonalLoop=1;jettySize=auto;html=1;exitX=0;exitY=1;exitDx=0;exitDy=0;entryX=1;entryY=0;entryDx=0;entryDy=0;" edge="1" parent="1" source="qNkJU3pD7Zcnwa2osOYY-18" target="qNkJU3pD7Zcnwa2osOYY-21">
          <mxGeometry relative="1" as="geometry" />
        </mxCell>
        <mxCell id="qNkJU3pD7Zcnwa2osOYY-18" value="COUNTING" style="ellipse;whiteSpace=wrap;html=1;aspect=fixed;" vertex="1" parent="1">
          <mxGeometry x="340" y="238" width="80" height="80" as="geometry" />
        </mxCell>
        <mxCell id="qNkJU3pD7Zcnwa2osOYY-28" style="edgeStyle=orthogonalEdgeStyle;orthogonalLoop=1;jettySize=auto;html=1;exitX=1;exitY=0.5;exitDx=0;exitDy=0;entryX=1;entryY=0.5;entryDx=0;entryDy=0;curved=1;" edge="1" parent="1" source="qNkJU3pD7Zcnwa2osOYY-20" target="qNkJU3pD7Zcnwa2osOYY-17">
          <mxGeometry relative="1" as="geometry">
            <Array as="points">
              <mxPoint x="716" y="421" />
              <mxPoint x="716" y="147" />
            </Array>
          </mxGeometry>
        </mxCell>
        <mxCell id="qNkJU3pD7Zcnwa2osOYY-20" value="FAIL" style="ellipse;whiteSpace=wrap;html=1;aspect=fixed;" vertex="1" parent="1">
          <mxGeometry x="441" y="381" width="80" height="80" as="geometry" />
        </mxCell>
        <mxCell id="qNkJU3pD7Zcnwa2osOYY-29" style="edgeStyle=orthogonalEdgeStyle;orthogonalLoop=1;jettySize=auto;html=1;exitX=0;exitY=0.5;exitDx=0;exitDy=0;entryX=0;entryY=0.5;entryDx=0;entryDy=0;curved=1;" edge="1" parent="1" source="qNkJU3pD7Zcnwa2osOYY-21" target="qNkJU3pD7Zcnwa2osOYY-17">
          <mxGeometry relative="1" as="geometry">
            <Array as="points">
              <mxPoint x="135" y="421" />
              <mxPoint x="135" y="147" />
            </Array>
          </mxGeometry>
        </mxCell>
        <mxCell id="qNkJU3pD7Zcnwa2osOYY-21" value="SUCCESS" style="ellipse;whiteSpace=wrap;html=1;aspect=fixed;" vertex="1" parent="1">
          <mxGeometry x="239" y="381" width="80" height="80" as="geometry" />
        </mxCell>
        <mxCell id="qNkJU3pD7Zcnwa2osOYY-25" value="(stop_pulse == 1 &amp;amp;&amp;amp; bcd_guess out of range)&lt;br&gt;|| (dir == UP &amp;amp;&amp;amp; bcd_guess == 999)&lt;br&gt;|| (dir == DOWN &amp;amp;&amp;amp; bcd_guess == 000)" style="text;html=1;align=center;verticalAlign=middle;resizable=0;points=[];autosize=1;strokeColor=none;fillColor=none;" vertex="1" parent="1">
          <mxGeometry x="411" y="304" width="260" height="55" as="geometry" />
        </mxCell>
        <mxCell id="qNkJU3pD7Zcnwa2osOYY-26" value="stop_pulse == 1&lt;br&gt;&amp;amp;&amp;amp; bcd_guess within range" style="text;html=1;align=center;verticalAlign=middle;resizable=0;points=[];autosize=1;strokeColor=none;fillColor=none;" vertex="1" parent="1">
          <mxGeometry x="182" y="311" width="163" height="41" as="geometry" />
        </mxCell>
        <mxCell id="qNkJU3pD7Zcnwa2osOYY-30" value="start_pulse == 1" style="text;html=1;align=center;verticalAlign=middle;resizable=0;points=[];autosize=1;strokeColor=none;fillColor=none;" vertex="1" parent="1">
          <mxGeometry x="698" y="192" width="104" height="26" as="geometry" />
        </mxCell>
        <mxCell id="qNkJU3pD7Zcnwa2osOYY-31" value="start_pulse == 1" style="text;html=1;align=center;verticalAlign=middle;resizable=0;points=[];autosize=1;strokeColor=none;fillColor=none;" vertex="1" parent="1">
          <mxGeometry x="45" y="197" width="104" height="26" as="geometry" />
        </mxCell>
      </root>
    </mxGraphModel>
  </diagram>
  <diagram id="oVCag9kOkhXiAv5sgsgX" name="Q2 waveform">
    <mxGraphModel dx="598" dy="331" grid="0" gridSize="10" guides="1" tooltips="1" connect="1" arrows="1" fold="1" page="1" pageScale="1" pageWidth="850" pageHeight="1100" math="0" shadow="0">
      <root>
        <mxCell id="0" />
        <mxCell id="1" parent="0" />
        <mxCell id="gp9roYGUq9JTRlzxqeTx-4" value="" style="endArrow=none;html=1;rounded=0;" edge="1" parent="1">
          <mxGeometry width="50" height="50" relative="1" as="geometry">
            <mxPoint x="159" y="212" as="sourcePoint" />
            <mxPoint x="159" y="177" as="targetPoint" />
          </mxGeometry>
        </mxCell>
        <mxCell id="gp9roYGUq9JTRlzxqeTx-5" value="" style="endArrow=none;html=1;rounded=0;" edge="1" parent="1">
          <mxGeometry width="50" height="50" relative="1" as="geometry">
            <mxPoint x="197" y="176" as="sourcePoint" />
            <mxPoint x="159" y="176" as="targetPoint" />
          </mxGeometry>
        </mxCell>
        <mxCell id="gp9roYGUq9JTRlzxqeTx-6" value="" style="endArrow=none;html=1;rounded=0;" edge="1" parent="1">
          <mxGeometry width="50" height="50" relative="1" as="geometry">
            <mxPoint x="198" y="212" as="sourcePoint" />
            <mxPoint x="198" y="176" as="targetPoint" />
          </mxGeometry>
        </mxCell>
        <mxCell id="gp9roYGUq9JTRlzxqeTx-10" value="" style="endArrow=none;html=1;rounded=0;" edge="1" parent="1">
          <mxGeometry width="50" height="50" relative="1" as="geometry">
            <mxPoint x="236" y="211" as="sourcePoint" />
            <mxPoint x="198" y="211" as="targetPoint" />
          </mxGeometry>
        </mxCell>
        <mxCell id="gp9roYGUq9JTRlzxqeTx-15" value="" style="endArrow=none;html=1;rounded=0;" edge="1" parent="1">
          <mxGeometry width="50" height="50" relative="1" as="geometry">
            <mxPoint x="236" y="212" as="sourcePoint" />
            <mxPoint x="236" y="177" as="targetPoint" />
          </mxGeometry>
        </mxCell>
        <mxCell id="gp9roYGUq9JTRlzxqeTx-16" value="" style="endArrow=none;html=1;rounded=0;" edge="1" parent="1">
          <mxGeometry width="50" height="50" relative="1" as="geometry">
            <mxPoint x="274" y="176" as="sourcePoint" />
            <mxPoint x="236" y="176" as="targetPoint" />
          </mxGeometry>
        </mxCell>
        <mxCell id="gp9roYGUq9JTRlzxqeTx-17" value="" style="endArrow=none;html=1;rounded=0;" edge="1" parent="1">
          <mxGeometry width="50" height="50" relative="1" as="geometry">
            <mxPoint x="275" y="212" as="sourcePoint" />
            <mxPoint x="275" y="176" as="targetPoint" />
          </mxGeometry>
        </mxCell>
        <mxCell id="gp9roYGUq9JTRlzxqeTx-18" value="" style="endArrow=none;html=1;rounded=0;" edge="1" parent="1">
          <mxGeometry width="50" height="50" relative="1" as="geometry">
            <mxPoint x="313" y="211" as="sourcePoint" />
            <mxPoint x="275" y="211" as="targetPoint" />
          </mxGeometry>
        </mxCell>
        <mxCell id="gp9roYGUq9JTRlzxqeTx-19" value="" style="endArrow=none;html=1;rounded=0;" edge="1" parent="1">
          <mxGeometry width="50" height="50" relative="1" as="geometry">
            <mxPoint x="314" y="212" as="sourcePoint" />
            <mxPoint x="314" y="177" as="targetPoint" />
          </mxGeometry>
        </mxCell>
        <mxCell id="gp9roYGUq9JTRlzxqeTx-20" value="" style="endArrow=none;html=1;rounded=0;" edge="1" parent="1">
          <mxGeometry width="50" height="50" relative="1" as="geometry">
            <mxPoint x="352" y="176" as="sourcePoint" />
            <mxPoint x="314" y="176" as="targetPoint" />
          </mxGeometry>
        </mxCell>
        <mxCell id="gp9roYGUq9JTRlzxqeTx-21" value="" style="endArrow=none;html=1;rounded=0;" edge="1" parent="1">
          <mxGeometry width="50" height="50" relative="1" as="geometry">
            <mxPoint x="353" y="212" as="sourcePoint" />
            <mxPoint x="353" y="176" as="targetPoint" />
          </mxGeometry>
        </mxCell>
        <mxCell id="gp9roYGUq9JTRlzxqeTx-22" value="" style="endArrow=none;html=1;rounded=0;" edge="1" parent="1">
          <mxGeometry width="50" height="50" relative="1" as="geometry">
            <mxPoint x="391" y="211" as="sourcePoint" />
            <mxPoint x="353" y="211" as="targetPoint" />
          </mxGeometry>
        </mxCell>
        <mxCell id="gp9roYGUq9JTRlzxqeTx-27" value="FSM clk" style="text;html=1;align=center;verticalAlign=middle;resizable=0;points=[];autosize=1;strokeColor=none;fillColor=none;" vertex="1" parent="1">
          <mxGeometry x="77" y="188" width="61" height="26" as="geometry" />
        </mxCell>
        <mxCell id="gp9roYGUq9JTRlzxqeTx-54" value="" style="endArrow=none;html=1;rounded=0;" edge="1" parent="1">
          <mxGeometry width="50" height="50" relative="1" as="geometry">
            <mxPoint x="252" y="158" as="sourcePoint" />
            <mxPoint x="159" y="158" as="targetPoint" />
          </mxGeometry>
        </mxCell>
        <mxCell id="gp9roYGUq9JTRlzxqeTx-56" value="" style="endArrow=none;html=1;rounded=0;" edge="1" parent="1">
          <mxGeometry width="50" height="50" relative="1" as="geometry">
            <mxPoint x="279" y="122" as="sourcePoint" />
            <mxPoint x="253" y="122" as="targetPoint" />
          </mxGeometry>
        </mxCell>
        <mxCell id="gp9roYGUq9JTRlzxqeTx-57" value="" style="endArrow=none;html=1;rounded=0;" edge="1" parent="1">
          <mxGeometry width="50" height="50" relative="1" as="geometry">
            <mxPoint x="253" y="158" as="sourcePoint" />
            <mxPoint x="253" y="123" as="targetPoint" />
          </mxGeometry>
        </mxCell>
        <mxCell id="gp9roYGUq9JTRlzxqeTx-72" value="one_pulse signal" style="text;html=1;align=center;verticalAlign=middle;resizable=0;points=[];autosize=1;strokeColor=none;fillColor=none;" vertex="1" parent="1">
          <mxGeometry x="46" y="132" width="108" height="26" as="geometry" />
        </mxCell>
        <mxCell id="gp9roYGUq9JTRlzxqeTx-74" value="" style="endArrow=none;html=1;rounded=0;" edge="1" parent="1">
          <mxGeometry width="50" height="50" relative="1" as="geometry">
            <mxPoint x="392" y="157" as="sourcePoint" />
            <mxPoint x="279" y="157.46" as="targetPoint" />
          </mxGeometry>
        </mxCell>
        <mxCell id="gp9roYGUq9JTRlzxqeTx-75" value="" style="endArrow=none;html=1;rounded=0;" edge="1" parent="1">
          <mxGeometry width="50" height="50" relative="1" as="geometry">
            <mxPoint x="279" y="157.46" as="sourcePoint" />
            <mxPoint x="279" y="122.46" as="targetPoint" />
          </mxGeometry>
        </mxCell>
        <mxCell id="gp9roYGUq9JTRlzxqeTx-76" value="FSM state" style="text;html=1;align=center;verticalAlign=middle;resizable=0;points=[];autosize=1;strokeColor=none;fillColor=none;" vertex="1" parent="1">
          <mxGeometry x="63.5" y="229" width="73" height="26" as="geometry" />
        </mxCell>
        <mxCell id="gp9roYGUq9JTRlzxqeTx-77" value="S0" style="text;html=1;align=center;verticalAlign=middle;resizable=0;points=[];autosize=1;strokeColor=none;fillColor=none;" vertex="1" parent="1">
          <mxGeometry x="154" y="229" width="33" height="26" as="geometry" />
        </mxCell>
        <mxCell id="gp9roYGUq9JTRlzxqeTx-83" value="S0" style="text;html=1;align=center;verticalAlign=middle;resizable=0;points=[];autosize=1;strokeColor=none;fillColor=none;" vertex="1" parent="1">
          <mxGeometry x="229" y="229" width="33" height="26" as="geometry" />
        </mxCell>
        <mxCell id="gp9roYGUq9JTRlzxqeTx-84" value="S0" style="text;html=1;align=center;verticalAlign=middle;resizable=0;points=[];autosize=1;strokeColor=none;fillColor=none;" vertex="1" parent="1">
          <mxGeometry x="308" y="229" width="33" height="26" as="geometry" />
        </mxCell>
      </root>
    </mxGraphModel>
  </diagram>
</mxfile>
